# MagicaVoxel @ Ephtracy

# group
o 

# material
mtllib Small_GreenGuy-0.mtl
usemtl palette

# normals
vn -1 0 0
vn 1 0 0
vn 0 0 1
vn 0 0 -1
vn 0 -1 0
vn 0 1 0

# texcoords
vt 0.892578 0.5
vt 0.923828 0.5

# verts
v 0.7 0 0.1
v 0.7 0 -0.1
v 0.7 0.1 0.1
v 0.7 0.1 0
v 0.7 0.2 0
v 0.7 0.2 -0.1
v 0.7 0.4 0
v 0.7 0.4 -0.1
v 0.8 0 0.1
v 0.8 0 -0.1
v 0.8 0.1 0.1
v 0.8 0.1 0
v 0.8 0.2 0
v 0.8 0.2 -0.1
v 0.8 0.4 0
v 0.8 0.4 -0.1
v 0.7 0 0.1
v 0.7 0.1 0.1
v 0.8 0 0.1
v 0.8 0.1 0.1
v 0.7 0.1 0
v 0.7 0.2 0
v 0.7 0.4 0
v 0.8 0.1 0
v 0.8 0.2 0
v 0.8 0.4 0
v 0.7 0 -0.1
v 0.7 0.2 -0.1
v 0.7 0.4 -0.1
v 0.8 0 -0.1
v 0.8 0.2 -0.1
v 0.8 0.4 -0.1
v 0.7 0 0.1
v 0.8 0 0.1
v 0.7 0 -0.1
v 0.8 0 -0.1
v 0.7 0.1 0.1
v 0.8 0.1 0.1
v 0.7 0.1 0
v 0.8 0.1 0
v 0.7 0.4 0
v 0.8 0.4 0
v 0.7 0.4 -0.1
v 0.8 0.4 -0.1

# faces
f 3/2/1 2/2/1 1/2/1
f 4/2/1 2/2/1 3/2/1
f 5/2/1 2/2/1 4/2/1
f 6/2/1 2/2/1 5/2/1
f 7/1/1 6/1/1 5/1/1
f 8/1/1 6/1/1 7/1/1
f 9/2/2 10/2/2 11/2/2
f 11/2/2 10/2/2 12/2/2
f 12/2/2 10/2/2 13/2/2
f 13/2/2 10/2/2 14/2/2
f 13/1/2 14/1/2 15/1/2
f 15/1/2 14/1/2 16/1/2
f 19/2/3 18/2/3 17/2/3
f 20/2/3 18/2/3 19/2/3
f 24/2/3 22/2/3 21/2/3
f 25/1/3 23/1/3 22/1/3
f 25/2/3 22/2/3 24/2/3
f 26/1/3 23/1/3 25/1/3
f 27/2/4 28/2/4 30/2/4
f 28/1/4 29/1/4 31/1/4
f 30/2/4 28/2/4 31/2/4
f 31/1/4 29/1/4 32/1/4
f 35/2/5 34/2/5 33/2/5
f 36/2/5 34/2/5 35/2/5
f 37/2/6 38/2/6 39/2/6
f 39/2/6 38/2/6 40/2/6
f 41/1/6 42/1/6 43/1/6
f 43/1/6 42/1/6 44/1/6
