# MagicaVoxel @ Ephtracy

# group
o 

# material
mtllib Small_GreenGuy-2.mtl
usemtl palette

# normals
vn -1 0 0
vn 1 0 0
vn 0 0 1
vn 0 0 -1
vn 0 -1 0
vn 0 1 0

# texcoords
vt 0.0292969 0.5
vt 0.830078 0.5
vt 0.861328 0.5
vt 0.892578 0.5
vt 0.919922 0.5
vt 0.923828 0.5

# verts
v 0.6 0.9 0.2
v 0.6 0.9 0.1
v 0.6 0.9 -0.3
v 0.6 1 0.2
v 0.6 1 0.1
v 0.6 1 -0.3
v 0.6 1.1 0.2
v 0.6 1.1 0.1
v 0.6 1.1 -0.2
v 0.6 1.1 -0.3
v 0.6 1.2 0.1
v 0.6 1.2 0
v 0.6 1.2 -0.1
v 0.6 1.2 -0.2
v 0.6 1.3 0
v 0.6 1.3 -0.1
v 0.6 1.5 0
v 0.6 1.5 -0.1
v 0.6 1.6 0
v 0.6 1.6 -0.1
v 0.7 0.8 0.1
v 0.7 0.8 0
v 0.7 0.9 0.1
v 0.7 0.9 0
v 0.7 1.1 0.2
v 0.7 1.1 0.1
v 0.7 1.1 -0.2
v 0.7 1.1 -0.3
v 0.7 1.2 0.2
v 0.7 1.2 0.1
v 0.7 1.2 -0.2
v 0.7 1.2 -0.3
v 0.9 0.8 0.1
v 0.9 0.8 0
v 0.9 0.9 0.1
v 0.9 0.9 0
v 1 1.2 0
v 1 1.2 -0.1
v 1 1.3 0
v 1 1.3 -0.1
v 1 1.5 0
v 1 1.5 -0.1
v 1 1.6 0
v 1 1.6 -0.1
v 0.7 1.2 0
v 0.7 1.2 -0.1
v 0.7 1.3 0
v 0.7 1.3 -0.1
v 0.7 1.5 0
v 0.7 1.5 -0.1
v 0.7 1.6 0
v 0.7 1.6 -0.1
v 0.8 0.8 0.1
v 0.8 0.8 0
v 0.8 0.9 0.1
v 0.8 0.9 0
v 1 0.8 0.1
v 1 0.8 0
v 1 0.9 0.1
v 1 0.9 0
v 1 1.1 0.2
v 1 1.1 0.1
v 1 1.1 -0.2
v 1 1.1 -0.3
v 1 1.2 0.2
v 1 1.2 0.1
v 1 1.2 -0.2
v 1 1.2 -0.3
v 1.1 0.9 0.2
v 1.1 0.9 0.1
v 1.1 0.9 -0.3
v 1.1 1 0.2
v 1.1 1 0.1
v 1.1 1 -0.3
v 1.1 1.1 0.2
v 1.1 1.1 0.1
v 1.1 1.1 -0.2
v 1.1 1.1 -0.3
v 1.1 1.2 0.1
v 1.1 1.2 0
v 1.1 1.2 -0.1
v 1.1 1.2 -0.2
v 1.1 1.3 0
v 1.1 1.3 -0.1
v 1.1 1.5 0
v 1.1 1.5 -0.1
v 1.1 1.6 0
v 1.1 1.6 -0.1
v 0.6 0.9 0.2
v 0.6 1 0.2
v 0.6 1.1 0.2
v 0.7 0.9 0.2
v 0.7 1 0.2
v 0.7 1.1 0.2
v 0.7 1.2 0.2
v 1 0.9 0.2
v 1 1 0.2
v 1 1.1 0.2
v 1 1.2 0.2
v 1.1 0.9 0.2
v 1.1 1 0.2
v 1.1 1.1 0.2
v 0.6 1.1 0.1
v 0.6 1.2 0.1
v 0.7 0.8 0.1
v 0.7 0.9 0.1
v 0.7 1.1 0.1
v 0.7 1.2 0.1
v 0.8 0.8 0.1
v 0.8 0.9 0.1
v 0.9 0.8 0.1
v 0.9 0.9 0.1
v 1 0.8 0.1
v 1 0.9 0.1
v 1 1.1 0.1
v 1 1.2 0.1
v 1.1 1.1 0.1
v 1.1 1.2 0.1
v 0.6 1.2 0
v 0.6 1.3 0
v 0.6 1.5 0
v 0.6 1.6 0
v 0.7 1.2 0
v 0.7 1.3 0
v 0.7 1.5 0
v 0.7 1.6 0
v 1 1.2 0
v 1 1.3 0
v 1 1.5 0
v 1 1.6 0
v 1.1 1.2 0
v 1.1 1.3 0
v 1.1 1.5 0
v 1.1 1.6 0
v 0.7 0.8 0
v 0.7 0.9 0
v 0.8 0.8 0
v 0.8 0.9 0
v 0.9 0.8 0
v 0.9 0.9 0
v 1 0.8 0
v 1 0.9 0
v 0.6 1.2 -0.1
v 0.6 1.3 -0.1
v 0.6 1.5 -0.1
v 0.6 1.6 -0.1
v 0.7 1.2 -0.1
v 0.7 1.3 -0.1
v 0.7 1.5 -0.1
v 0.7 1.6 -0.1
v 1 1.2 -0.1
v 1 1.3 -0.1
v 1 1.5 -0.1
v 1 1.6 -0.1
v 1.1 1.2 -0.1
v 1.1 1.3 -0.1
v 1.1 1.5 -0.1
v 1.1 1.6 -0.1
v 0.6 1.1 -0.2
v 0.6 1.2 -0.2
v 0.7 1.1 -0.2
v 0.7 1.2 -0.2
v 1 1.1 -0.2
v 1 1.2 -0.2
v 1.1 1.1 -0.2
v 1.1 1.2 -0.2
v 0.6 0.9 -0.3
v 0.6 1 -0.3
v 0.6 1.1 -0.3
v 0.7 1.1 -0.3
v 0.7 1.2 -0.3
v 1 1.1 -0.3
v 1 1.2 -0.3
v 1.1 0.9 -0.3
v 1.1 1 -0.3
v 1.1 1.1 -0.3
v 0.7 0.8 0.1
v 0.8 0.8 0.1
v 0.9 0.8 0.1
v 1 0.8 0.1
v 0.7 0.8 0
v 0.8 0.8 0
v 0.9 0.8 0
v 1 0.8 0
v 0.6 0.9 0.2
v 0.7 0.9 0.2
v 1 0.9 0.2
v 1.1 0.9 0.2
v 0.6 0.9 0.1
v 0.7 0.9 0.1
v 0.8 0.9 0.1
v 0.9 0.9 0.1
v 1 0.9 0.1
v 1.1 0.9 0.1
v 0.7 0.9 0
v 0.8 0.9 0
v 0.9 0.9 0
v 1 0.9 0
v 0.7 0.9 -0.2
v 1 0.9 -0.2
v 0.6 0.9 -0.3
v 1.1 0.9 -0.3
v 0.6 1.1 0.2
v 0.7 1.1 0.2
v 1 1.1 0.2
v 1.1 1.1 0.2
v 0.6 1.1 0.1
v 0.7 1.1 0.1
v 1 1.1 0.1
v 1.1 1.1 0.1
v 0.6 1.1 -0.2
v 0.7 1.1 -0.2
v 1 1.1 -0.2
v 1.1 1.1 -0.2
v 0.6 1.1 -0.3
v 0.7 1.1 -0.3
v 1 1.1 -0.3
v 1.1 1.1 -0.3
v 0.7 1.2 0.2
v 1 1.2 0.2
v 0.6 1.2 0.1
v 0.7 1.2 0.1
v 1 1.2 0.1
v 1.1 1.2 0.1
v 0.6 1.2 0
v 0.7 1.2 0
v 1 1.2 0
v 1.1 1.2 0
v 0.6 1.2 -0.1
v 0.7 1.2 -0.1
v 1 1.2 -0.1
v 1.1 1.2 -0.1
v 0.6 1.2 -0.2
v 0.7 1.2 -0.2
v 1 1.2 -0.2
v 1.1 1.2 -0.2
v 0.7 1.2 -0.3
v 1 1.2 -0.3
v 0.6 1.6 0
v 0.7 1.6 0
v 1 1.6 0
v 1.1 1.6 0
v 0.6 1.6 -0.1
v 0.7 1.6 -0.1
v 1 1.6 -0.1
v 1.1 1.6 -0.1

# faces
f 4/1/1 2/1/1 1/1/1
f 5/6/1 3/6/1 2/6/1
f 5/1/1 2/1/1 4/1/1
f 6/6/1 3/6/1 5/6/1
f 7/6/1 5/6/1 4/6/1
f 8/4/1 6/4/1 5/4/1
f 8/6/1 5/6/1 7/6/1
f 9/4/1 6/4/1 8/4/1
f 10/4/1 6/4/1 9/4/1
f 11/4/1 9/4/1 8/4/1
f 12/4/1 9/4/1 11/4/1
f 13/4/1 9/4/1 12/4/1
f 14/4/1 9/4/1 13/4/1
f 15/6/1 13/6/1 12/6/1
f 16/6/1 13/6/1 15/6/1
f 17/5/1 16/5/1 15/5/1
f 18/5/1 16/5/1 17/5/1
f 19/1/1 18/1/1 17/1/1
f 20/1/1 18/1/1 19/1/1
f 23/3/1 22/3/1 21/3/1
f 24/3/1 22/3/1 23/3/1
f 29/4/1 26/4/1 25/4/1
f 30/4/1 26/4/1 29/4/1
f 31/4/1 28/4/1 27/4/1
f 32/4/1 28/4/1 31/4/1
f 35/3/1 34/3/1 33/3/1
f 36/3/1 34/3/1 35/3/1
f 39/6/1 38/6/1 37/6/1
f 40/6/1 38/6/1 39/6/1
f 41/5/1 40/5/1 39/5/1
f 42/5/1 40/5/1 41/5/1
f 43/1/1 42/1/1 41/1/1
f 44/1/1 42/1/1 43/1/1
f 45/6/2 46/6/2 47/6/2
f 47/6/2 46/6/2 48/6/2
f 47/5/2 48/5/2 49/5/2
f 49/5/2 48/5/2 50/5/2
f 49/1/2 50/1/2 51/1/2
f 51/1/2 50/1/2 52/1/2
f 53/3/2 54/3/2 55/3/2
f 55/3/2 54/3/2 56/3/2
f 57/3/2 58/3/2 59/3/2
f 59/3/2 58/3/2 60/3/2
f 61/4/2 62/4/2 65/4/2
f 65/4/2 62/4/2 66/4/2
f 63/4/2 64/4/2 67/4/2
f 67/4/2 64/4/2 68/4/2
f 69/1/2 70/1/2 72/1/2
f 70/6/2 71/6/2 73/6/2
f 72/1/2 70/1/2 73/1/2
f 73/6/2 71/6/2 74/6/2
f 72/6/2 73/6/2 75/6/2
f 73/4/2 74/4/2 76/4/2
f 75/6/2 73/6/2 76/6/2
f 76/4/2 74/4/2 77/4/2
f 77/4/2 74/4/2 78/4/2
f 76/4/2 77/4/2 79/4/2
f 79/4/2 77/4/2 80/4/2
f 80/4/2 77/4/2 81/4/2
f 81/4/2 77/4/2 82/4/2
f 80/6/2 81/6/2 83/6/2
f 83/6/2 81/6/2 84/6/2
f 83/5/2 84/5/2 85/5/2
f 85/5/2 84/5/2 86/5/2
f 85/1/2 86/1/2 87/1/2
f 87/1/2 86/1/2 88/1/2
f 92/1/3 90/1/3 89/1/3
f 93/6/3 91/6/3 90/6/3
f 93/1/3 90/1/3 92/1/3
f 94/6/3 91/6/3 93/6/3
f 96/6/3 93/6/3 92/6/3
f 97/4/3 95/4/3 94/4/3
f 97/6/3 93/6/3 96/6/3
f 97/4/3 94/4/3 93/4/3
f 98/4/3 95/4/3 97/4/3
f 99/4/3 95/4/3 98/4/3
f 100/1/3 97/1/3 96/1/3
f 101/6/3 98/6/3 97/6/3
f 101/1/3 97/1/3 100/1/3
f 102/6/3 98/6/3 101/6/3
f 107/4/3 104/4/3 103/4/3
f 108/4/3 104/4/3 107/4/3
f 109/3/3 106/3/3 105/3/3
f 110/3/3 106/3/3 109/3/3
f 113/3/3 112/3/3 111/3/3
f 114/3/3 112/3/3 113/3/3
f 117/4/3 116/4/3 115/4/3
f 118/4/3 116/4/3 117/4/3
f 123/6/3 120/6/3 119/6/3
f 124/5/3 121/5/3 120/5/3
f 124/6/3 120/6/3 123/6/3
f 125/1/3 122/1/3 121/1/3
f 125/5/3 121/5/3 124/5/3
f 126/1/3 122/1/3 125/1/3
f 131/6/3 128/6/3 127/6/3
f 132/5/3 129/5/3 128/5/3
f 132/6/3 128/6/3 131/6/3
f 133/1/3 130/1/3 129/1/3
f 133/5/3 129/5/3 132/5/3
f 134/1/3 130/1/3 133/1/3
f 135/3/4 136/3/4 137/3/4
f 137/3/4 136/3/4 138/3/4
f 139/3/4 140/3/4 141/3/4
f 141/3/4 140/3/4 142/3/4
f 143/6/4 144/6/4 147/6/4
f 144/5/4 145/5/4 148/5/4
f 147/6/4 144/6/4 148/6/4
f 145/1/4 146/1/4 149/1/4
f 148/5/4 145/5/4 149/5/4
f 149/1/4 146/1/4 150/1/4
f 151/6/4 152/6/4 155/6/4
f 152/5/4 153/5/4 156/5/4
f 155/6/4 152/6/4 156/6/4
f 153/1/4 154/1/4 157/1/4
f 156/5/4 153/5/4 157/5/4
f 157/1/4 154/1/4 158/1/4
f 159/4/4 160/4/4 161/4/4
f 161/4/4 160/4/4 162/4/4
f 163/4/4 164/4/4 165/4/4
f 165/4/4 164/4/4 166/4/4
f 168/4/4 169/4/4 170/4/4
f 168/4/4 170/4/4 172/4/4
f 170/4/4 171/4/4 172/4/4
f 172/4/4 171/4/4 173/4/4
f 167/6/4 168/6/4 174/6/4
f 168/4/4 172/4/4 175/4/4
f 174/6/4 168/6/4 175/6/4
f 175/4/4 172/4/4 176/4/4
f 181/3/5 178/3/5 177/3/5
f 182/3/5 178/3/5 181/3/5
f 183/3/5 180/3/5 179/3/5
f 184/3/5 180/3/5 183/3/5
f 189/1/5 186/1/5 185/1/5
f 190/6/5 187/6/5 186/6/5
f 190/1/5 186/1/5 189/1/5
f 191/6/5 187/6/5 190/6/5
f 192/6/5 187/6/5 191/6/5
f 193/1/5 188/1/5 187/1/5
f 193/6/5 187/6/5 192/6/5
f 194/1/5 188/1/5 193/1/5
f 195/6/5 190/6/5 189/6/5
f 196/2/5 192/2/5 191/2/5
f 197/2/5 192/2/5 196/2/5
f 198/6/5 194/6/5 193/6/5
f 199/6/5 195/6/5 189/6/5
f 199/2/5 198/2/5 197/2/5
f 199/2/5 197/2/5 196/2/5
f 199/2/5 196/2/5 195/2/5
f 200/6/5 194/6/5 198/6/5
f 200/2/5 198/2/5 199/2/5
f 201/6/5 199/6/5 189/6/5
f 201/6/5 200/6/5 199/6/5
f 202/6/5 194/6/5 200/6/5
f 202/6/5 200/6/5 201/6/5
f 203/6/6 204/6/6 207/6/6
f 207/6/6 204/6/6 208/6/6
f 205/6/6 206/6/6 209/6/6
f 209/6/6 206/6/6 210/6/6
f 211/4/6 212/4/6 215/4/6
f 215/4/6 212/4/6 216/4/6
f 213/4/6 214/4/6 217/4/6
f 217/4/6 214/4/6 218/4/6
f 219/4/6 220/4/6 222/4/6
f 222/4/6 220/4/6 223/4/6
f 221/4/6 222/4/6 225/4/6
f 223/4/6 224/4/6 225/4/6
f 222/4/6 223/4/6 225/4/6
f 225/4/6 224/4/6 226/4/6
f 226/4/6 224/4/6 227/4/6
f 227/4/6 224/4/6 228/4/6
f 226/4/6 227/4/6 230/4/6
f 230/4/6 227/4/6 231/4/6
f 229/4/6 230/4/6 233/4/6
f 231/4/6 232/4/6 233/4/6
f 230/4/6 231/4/6 233/4/6
f 233/4/6 232/4/6 234/4/6
f 234/4/6 232/4/6 235/4/6
f 235/4/6 232/4/6 236/4/6
f 234/4/6 235/4/6 237/4/6
f 237/4/6 235/4/6 238/4/6
f 239/1/6 240/1/6 243/1/6
f 243/1/6 240/1/6 244/1/6
f 241/1/6 242/1/6 245/1/6
f 245/1/6 242/1/6 246/1/6
