# MagicaVoxel @ Ephtracy

# group
o 

# material
mtllib Small_GreenGuy-1.mtl
usemtl palette

# normals
vn -1 0 0
vn 1 0 0
vn 0 0 1
vn 0 0 -1
vn 0 -1 0
vn 0 1 0

# texcoords
vt 0.830078 0.5
vt 0.861328 0.5
vt 0.892578 0.5
vt 0.923828 0.5

# verts
v 0.6 0.4 0.1
v 0.6 0.4 -0.2
v 0.6 0.5 0.2
v 0.6 0.5 0.1
v 0.6 0.5 -0.2
v 0.6 0.5 -0.3
v 0.6 0.6 0.2
v 0.6 0.6 0.1
v 0.6 0.6 0
v 0.6 0.6 -0.3
v 0.6 0.7 0.1
v 0.6 0.7 0
v 0.7 0.4 0.2
v 0.7 0.4 0.1
v 0.7 0.4 -0.2
v 0.7 0.4 -0.3
v 0.7 0.5 0.2
v 0.7 0.5 0.1
v 0.7 0.5 -0.2
v 0.7 0.5 -0.3
v 1 0.6 0.1
v 1 0.6 0
v 1 0.7 0.1
v 1 0.7 0
v 0.7 0.6 0.1
v 0.7 0.6 0
v 0.7 0.7 0.1
v 0.7 0.7 0
v 1 0.4 0.2
v 1 0.4 0.1
v 1 0.4 -0.2
v 1 0.4 -0.3
v 1 0.5 0.2
v 1 0.5 0.1
v 1 0.5 -0.2
v 1 0.5 -0.3
v 1.1 0.4 0.1
v 1.1 0.4 -0.2
v 1.1 0.5 0.2
v 1.1 0.5 0.1
v 1.1 0.5 -0.2
v 1.1 0.5 -0.3
v 1.1 0.6 0.2
v 1.1 0.6 0.1
v 1.1 0.6 0
v 1.1 0.6 -0.3
v 1.1 0.7 0.1
v 1.1 0.7 0
v 0.6 0.5 0.2
v 0.6 0.6 0.2
v 0.7 0.4 0.2
v 0.7 0.5 0.2
v 1 0.4 0.2
v 1 0.5 0.2
v 1.1 0.5 0.2
v 1.1 0.6 0.2
v 0.6 0.4 0.1
v 0.6 0.5 0.1
v 0.6 0.6 0.1
v 0.6 0.7 0.1
v 0.7 0.4 0.1
v 0.7 0.5 0.1
v 0.7 0.6 0.1
v 0.7 0.7 0.1
v 1 0.4 0.1
v 1 0.5 0.1
v 1 0.6 0.1
v 1 0.7 0.1
v 1.1 0.4 0.1
v 1.1 0.5 0.1
v 1.1 0.6 0.1
v 1.1 0.7 0.1
v 0.6 0.6 0
v 0.6 0.7 0
v 0.7 0.6 0
v 0.7 0.7 0
v 1 0.6 0
v 1 0.7 0
v 1.1 0.6 0
v 1.1 0.7 0
v 0.6 0.4 -0.2
v 0.6 0.5 -0.2
v 0.7 0.4 -0.2
v 0.7 0.5 -0.2
v 1 0.4 -0.2
v 1 0.5 -0.2
v 1.1 0.4 -0.2
v 1.1 0.5 -0.2
v 0.6 0.5 -0.3
v 0.6 0.6 -0.3
v 0.7 0.4 -0.3
v 0.7 0.5 -0.3
v 1 0.4 -0.3
v 1 0.5 -0.3
v 1.1 0.5 -0.3
v 1.1 0.6 -0.3
v 0.7 0.4 0.2
v 1 0.4 0.2
v 0.6 0.4 0.1
v 0.7 0.4 0.1
v 1 0.4 0.1
v 1.1 0.4 0.1
v 0.6 0.4 -0.2
v 0.7 0.4 -0.2
v 1 0.4 -0.2
v 1.1 0.4 -0.2
v 0.7 0.4 -0.3
v 1 0.4 -0.3
v 0.6 0.5 0.2
v 0.7 0.5 0.2
v 1 0.5 0.2
v 1.1 0.5 0.2
v 0.6 0.5 0.1
v 0.7 0.5 0.1
v 1 0.5 0.1
v 1.1 0.5 0.1
v 0.6 0.5 -0.2
v 0.7 0.5 -0.2
v 1 0.5 -0.2
v 1.1 0.5 -0.2
v 0.6 0.5 -0.3
v 0.7 0.5 -0.3
v 1 0.5 -0.3
v 1.1 0.5 -0.3
v 0.6 0.6 0.2
v 1.1 0.6 0.2
v 0.6 0.6 0.1
v 0.7 0.6 0.1
v 1 0.6 0.1
v 1.1 0.6 0.1
v 0.6 0.6 0
v 0.7 0.6 0
v 1 0.6 0
v 1.1 0.6 0
v 0.7 0.6 -0.2
v 1 0.6 -0.2
v 0.6 0.6 -0.3
v 1.1 0.6 -0.3
v 0.6 0.7 0.1
v 0.7 0.7 0.1
v 1 0.7 0.1
v 1.1 0.7 0.1
v 0.6 0.7 0
v 0.7 0.7 0
v 1 0.7 0
v 1.1 0.7 0

# faces
f 4/3/1 2/3/1 1/3/1
f 5/3/1 2/3/1 4/3/1
f 7/4/1 4/4/1 3/4/1
f 7/4/1 6/4/1 5/4/1
f 7/4/1 5/4/1 4/4/1
f 8/4/1 6/4/1 7/4/1
f 9/4/1 6/4/1 8/4/1
f 10/4/1 6/4/1 9/4/1
f 11/2/1 9/2/1 8/2/1
f 12/2/1 9/2/1 11/2/1
f 17/3/1 14/3/1 13/3/1
f 18/3/1 14/3/1 17/3/1
f 19/3/1 16/3/1 15/3/1
f 20/3/1 16/3/1 19/3/1
f 23/2/1 22/2/1 21/2/1
f 24/2/1 22/2/1 23/2/1
f 25/2/2 26/2/2 27/2/2
f 27/2/2 26/2/2 28/2/2
f 29/3/2 30/3/2 33/3/2
f 33/3/2 30/3/2 34/3/2
f 31/3/2 32/3/2 35/3/2
f 35/3/2 32/3/2 36/3/2
f 37/3/2 38/3/2 40/3/2
f 40/3/2 38/3/2 41/3/2
f 39/4/2 40/4/2 43/4/2
f 41/4/2 42/4/2 43/4/2
f 40/4/2 41/4/2 43/4/2
f 43/4/2 42/4/2 44/4/2
f 44/4/2 42/4/2 45/4/2
f 45/4/2 42/4/2 46/4/2
f 44/2/2 45/2/2 47/2/2
f 47/2/2 45/2/2 48/2/2
f 52/4/3 50/4/3 49/4/3
f 53/3/3 52/3/3 51/3/3
f 54/4/3 50/4/3 52/4/3
f 54/3/3 52/3/3 53/3/3
f 55/4/3 50/4/3 54/4/3
f 56/4/3 50/4/3 55/4/3
f 61/3/3 58/3/3 57/3/3
f 62/3/3 58/3/3 61/3/3
f 63/2/3 60/2/3 59/2/3
f 64/2/3 60/2/3 63/2/3
f 69/3/3 66/3/3 65/3/3
f 70/3/3 66/3/3 69/3/3
f 71/2/3 68/2/3 67/2/3
f 72/2/3 68/2/3 71/2/3
f 73/2/4 74/2/4 75/2/4
f 75/2/4 74/2/4 76/2/4
f 77/2/4 78/2/4 79/2/4
f 79/2/4 78/2/4 80/2/4
f 81/3/4 82/3/4 83/3/4
f 83/3/4 82/3/4 84/3/4
f 85/3/4 86/3/4 87/3/4
f 87/3/4 86/3/4 88/3/4
f 89/4/4 90/4/4 92/4/4
f 91/3/4 92/3/4 93/3/4
f 92/4/4 90/4/4 94/4/4
f 93/3/4 92/3/4 94/3/4
f 94/4/4 90/4/4 95/4/4
f 95/4/4 90/4/4 96/4/4
f 100/3/5 98/3/5 97/3/5
f 101/3/5 98/3/5 100/3/5
f 103/3/5 100/3/5 99/3/5
f 103/3/5 102/3/5 101/3/5
f 103/3/5 101/3/5 100/3/5
f 104/3/5 102/3/5 103/3/5
f 105/3/5 102/3/5 104/3/5
f 106/3/5 102/3/5 105/3/5
f 107/3/5 105/3/5 104/3/5
f 108/3/5 105/3/5 107/3/5
f 113/4/5 110/4/5 109/4/5
f 114/4/5 110/4/5 113/4/5
f 115/4/5 112/4/5 111/4/5
f 116/4/5 112/4/5 115/4/5
f 121/4/5 118/4/5 117/4/5
f 122/4/5 118/4/5 121/4/5
f 123/4/5 120/4/5 119/4/5
f 124/4/5 120/4/5 123/4/5
f 125/4/6 126/4/6 127/4/6
f 127/4/6 126/4/6 128/4/6
f 128/4/6 126/4/6 129/4/6
f 129/4/6 126/4/6 130/4/6
f 128/1/6 129/1/6 132/1/6
f 132/1/6 129/1/6 133/1/6
f 131/4/6 132/4/6 135/4/6
f 132/1/6 133/1/6 135/1/6
f 133/4/6 134/4/6 136/4/6
f 135/1/6 133/1/6 136/1/6
f 131/4/6 135/4/6 137/4/6
f 135/4/6 136/4/6 137/4/6
f 136/4/6 134/4/6 138/4/6
f 137/4/6 136/4/6 138/4/6
f 139/2/6 140/2/6 143/2/6
f 143/2/6 140/2/6 144/2/6
f 141/2/6 142/2/6 145/2/6
f 145/2/6 142/2/6 146/2/6
