# MagicaVoxel @ Ephtracy

# group
o 

# material
mtllib Dragon_small-7.mtl
usemtl palette

# normals
vn -1 0 0
vn 1 0 0
vn 0 0 1
vn 0 0 -1
vn 0 -1 0
vn 0 1 0

# texcoords
vt 0.0292969 0.5
vt 0.826172 0.5
vt 0.853516 0.5
vt 0.857422 0.5
vt 0.884766 0.5
vt 0.888672 0.5

# verts
v -3.3 0.4 0.3
v -3.3 0.4 0.1
v -3.3 0.6 0.3
v -3.3 0.6 0.1
v -3.2 0.2 0.4
v -3.2 0.2 0
v -3.2 0.3 0.5
v -3.2 0.3 0.4
v -3.2 0.3 0
v -3.2 0.3 -0.1
v -3.2 0.4 0.3
v -3.2 0.4 0.1
v -3.2 0.6 0.3
v -3.2 0.6 0.1
v -3.2 0.7 0.5
v -3.2 0.7 0.4
v -3.2 0.7 0
v -3.2 0.7 -0.1
v -3.2 0.8 0.4
v -3.2 0.8 0
v -3.1 0.2 0
v -3.1 0.2 -0.1
v -3.1 0.3 0
v -3.1 0.3 -0.1
v -3.1 0.7 0.5
v -3.1 0.7 0.4
v -3.1 0.7 0
v -3.1 0.7 -0.1
v -3.1 0.8 0.5
v -3.1 0.8 0.4
v -3.1 0.8 0.3
v -3.1 0.8 0.2
v -3.1 0.8 0
v -3.1 0.8 -0.1
v -3.1 0.9 0.3
v -3.1 0.9 0.2
v -3.1 1.2 0.3
v -3.1 1.2 0.2
v -3 0.8 0.4
v -3 0.8 0.3
v -3 0.8 0.2
v -3 0.8 0
v -3 0.9 0.4
v -3 0.9 0.3
v -3 0.9 0.2
v -3 0.9 0.1
v -3 0.9 0
v -3 1 0.2
v -3 1 0.1
v -2.8 1 0.3
v -2.8 1 0.2
v -2.8 1.2 0.3
v -2.8 1.2 0.2
v -2.7 0.3 0.5
v -2.7 0.3 0.4
v -2.7 0.7 0.5
v -2.7 0.7 0.4
v -3.1 0.3 0.5
v -3.1 0.3 0.4
v -3.1 0.7 0.5
v -3.1 0.7 0.4
v -3 1 0.3
v -3 1 0.2
v -3 1.2 0.3
v -3 1.2 0.2
v -2.8 0.8 0.4
v -2.8 0.8 0.3
v -2.8 0.8 0.2
v -2.8 0.8 0
v -2.8 0.9 0.4
v -2.8 0.9 0.3
v -2.8 0.9 0.2
v -2.8 0.9 0.1
v -2.8 0.9 0
v -2.8 1 0.2
v -2.8 1 0.1
v -2.7 0.2 0
v -2.7 0.2 -0.1
v -2.7 0.3 0
v -2.7 0.3 -0.1
v -2.7 0.7 0.5
v -2.7 0.7 0.4
v -2.7 0.7 0
v -2.7 0.7 -0.1
v -2.7 0.8 0.5
v -2.7 0.8 0.4
v -2.7 0.8 0.3
v -2.7 0.8 0.2
v -2.7 0.8 0
v -2.7 0.8 -0.1
v -2.7 0.9 0.3
v -2.7 0.9 0.2
v -2.7 1.2 0.3
v -2.7 1.2 0.2
v -2.6 0.2 0.4
v -2.6 0.2 0
v -2.6 0.3 0.5
v -2.6 0.3 0.4
v -2.6 0.3 0
v -2.6 0.3 -0.1
v -2.6 0.4 0.3
v -2.6 0.4 0.1
v -2.6 0.6 0.3
v -2.6 0.6 0.1
v -2.6 0.7 0.5
v -2.6 0.7 0.4
v -2.6 0.7 0
v -2.6 0.7 -0.1
v -2.6 0.8 0.4
v -2.6 0.8 0
v -2.5 0.4 0.3
v -2.5 0.4 0.1
v -2.5 0.6 0.3
v -2.5 0.6 0.1
v -3.2 0.3 0.5
v -3.2 0.7 0.5
v -3.1 0.3 0.5
v -3.1 0.7 0.5
v -3.1 0.8 0.5
v -2.7 0.3 0.5
v -2.7 0.7 0.5
v -2.7 0.8 0.5
v -2.6 0.3 0.5
v -2.6 0.7 0.5
v -3.2 0.2 0.4
v -3.2 0.3 0.4
v -3.2 0.7 0.4
v -3.2 0.8 0.4
v -3.1 0.2 0.4
v -3.1 0.3 0.4
v -3.1 0.7 0.4
v -3.1 0.8 0.4
v -3 0.8 0.4
v -3 0.9 0.4
v -2.8 0.8 0.4
v -2.8 0.9 0.4
v -2.7 0.2 0.4
v -2.7 0.3 0.4
v -2.7 0.7 0.4
v -2.7 0.8 0.4
v -2.6 0.2 0.4
v -2.6 0.3 0.4
v -2.6 0.7 0.4
v -2.6 0.8 0.4
v -3.3 0.4 0.3
v -3.3 0.6 0.3
v -3.2 0.4 0.3
v -3.2 0.6 0.3
v -3.1 0.8 0.3
v -3.1 0.9 0.3
v -3.1 1.2 0.3
v -3 0.8 0.3
v -3 0.9 0.3
v -3 1 0.3
v -3 1.2 0.3
v -2.8 0.8 0.3
v -2.8 0.9 0.3
v -2.8 1 0.3
v -2.8 1.2 0.3
v -2.7 0.8 0.3
v -2.7 0.9 0.3
v -2.7 1.2 0.3
v -2.6 0.4 0.3
v -2.6 0.6 0.3
v -2.5 0.4 0.3
v -2.5 0.6 0.3
v -3.1 0.8 0.2
v -3.1 0.9 0.2
v -3.1 1.2 0.2
v -3 0.8 0.2
v -3 0.9 0.2
v -3 1 0.2
v -3 1.2 0.2
v -2.8 0.8 0.2
v -2.8 0.9 0.2
v -2.8 1 0.2
v -2.8 1.2 0.2
v -2.7 0.8 0.2
v -2.7 0.9 0.2
v -2.7 1.2 0.2
v -3.3 0.4 0.1
v -3.3 0.6 0.1
v -3.2 0.4 0.1
v -3.2 0.6 0.1
v -3 0.9 0.1
v -3 1 0.1
v -2.8 0.9 0.1
v -2.8 1 0.1
v -2.6 0.4 0.1
v -2.6 0.6 0.1
v -2.5 0.4 0.1
v -2.5 0.6 0.1
v -3.2 0.2 0
v -3.2 0.3 0
v -3.2 0.7 0
v -3.2 0.8 0
v -3.1 0.2 0
v -3.1 0.3 0
v -3.1 0.7 0
v -3.1 0.8 0
v -3 0.8 0
v -3 0.9 0
v -2.8 0.8 0
v -2.8 0.9 0
v -2.7 0.2 0
v -2.7 0.3 0
v -2.7 0.7 0
v -2.7 0.8 0
v -2.6 0.2 0
v -2.6 0.3 0
v -2.6 0.7 0
v -2.6 0.8 0
v -3.2 0.3 -0.1
v -3.2 0.7 -0.1
v -3.1 0.2 -0.1
v -3.1 0.3 -0.1
v -3.1 0.7 -0.1
v -3.1 0.8 -0.1
v -2.7 0.2 -0.1
v -2.7 0.3 -0.1
v -2.7 0.7 -0.1
v -2.7 0.8 -0.1
v -2.6 0.3 -0.1
v -2.6 0.7 -0.1
v -3.2 0.2 0.4
v -3.1 0.2 0.4
v -2.7 0.2 0.4
v -2.6 0.2 0.4
v -3.2 0.2 0
v -3.1 0.2 0
v -2.7 0.2 0
v -2.6 0.2 0
v -3.1 0.2 -0.1
v -2.7 0.2 -0.1
v -3.2 0.3 0.5
v -3.1 0.3 0.5
v -2.7 0.3 0.5
v -2.6 0.3 0.5
v -3.2 0.3 0.4
v -3.1 0.3 0.4
v -2.7 0.3 0.4
v -2.6 0.3 0.4
v -3.2 0.3 0
v -3.1 0.3 0
v -2.7 0.3 0
v -2.6 0.3 0
v -3.2 0.3 -0.1
v -3.1 0.3 -0.1
v -2.7 0.3 -0.1
v -2.6 0.3 -0.1
v -3.3 0.4 0.3
v -3.2 0.4 0.3
v -2.6 0.4 0.3
v -2.5 0.4 0.3
v -3.3 0.4 0.1
v -3.2 0.4 0.1
v -2.6 0.4 0.1
v -2.5 0.4 0.1
v -3.1 0.7 0.5
v -2.7 0.7 0.5
v -3.1 0.7 0.4
v -2.7 0.7 0.4
v -3.3 0.6 0.3
v -3.2 0.6 0.3
v -2.6 0.6 0.3
v -2.5 0.6 0.3
v -3.3 0.6 0.1
v -3.2 0.6 0.1
v -2.6 0.6 0.1
v -2.5 0.6 0.1
v -3.2 0.7 0.5
v -3.1 0.7 0.5
v -2.7 0.7 0.5
v -2.6 0.7 0.5
v -3.2 0.7 0.4
v -3.1 0.7 0.4
v -2.7 0.7 0.4
v -2.6 0.7 0.4
v -3.2 0.7 0
v -3.1 0.7 0
v -2.7 0.7 0
v -2.6 0.7 0
v -3.2 0.7 -0.1
v -3.1 0.7 -0.1
v -2.7 0.7 -0.1
v -2.6 0.7 -0.1
v -3.1 0.8 0.5
v -2.7 0.8 0.5
v -3.2 0.8 0.4
v -3.1 0.8 0.4
v -3 0.8 0.4
v -2.8 0.8 0.4
v -2.7 0.8 0.4
v -2.6 0.8 0.4
v -3.1 0.8 0.3
v -3 0.8 0.3
v -2.8 0.8 0.3
v -2.7 0.8 0.3
v -3.1 0.8 0.2
v -3 0.8 0.2
v -2.8 0.8 0.2
v -2.7 0.8 0.2
v -3.2 0.8 0
v -3.1 0.8 0
v -3 0.8 0
v -2.8 0.8 0
v -2.7 0.8 0
v -2.6 0.8 0
v -3.1 0.8 -0.1
v -2.7 0.8 -0.1
v -3 0.9 0.4
v -2.8 0.9 0.4
v -3 0.9 0.3
v -2.8 0.9 0.3
v -3 0.9 0.1
v -2.8 0.9 0.1
v -3 0.9 0
v -2.8 0.9 0
v -3 1 0.3
v -2.8 1 0.3
v -3 1 0.2
v -2.8 1 0.2
v -3 1 0.1
v -2.8 1 0.1
v -3.1 1.2 0.3
v -3 1.2 0.3
v -2.8 1.2 0.3
v -2.7 1.2 0.3
v -3.1 1.2 0.2
v -3 1.2 0.2
v -2.8 1.2 0.2
v -2.7 1.2 0.2

# faces
f 3/2/1 2/2/1 1/2/1
f 4/2/1 2/2/1 3/2/1
f 8/3/1 6/3/1 5/3/1
f 9/3/1 6/3/1 8/3/1
f 11/4/1 9/4/1 8/4/1
f 12/4/1 9/4/1 11/4/1
f 13/4/1 11/4/1 8/4/1
f 14/4/1 9/4/1 12/4/1
f 15/3/1 8/3/1 7/3/1
f 16/4/1 14/4/1 13/4/1
f 16/3/1 8/3/1 15/3/1
f 16/4/1 13/4/1 8/4/1
f 17/3/1 10/3/1 9/3/1
f 17/4/1 14/4/1 16/4/1
f 17/4/1 9/4/1 14/4/1
f 18/3/1 10/3/1 17/3/1
f 19/3/1 17/3/1 16/3/1
f 20/3/1 17/3/1 19/3/1
f 23/3/1 22/3/1 21/3/1
f 24/3/1 22/3/1 23/3/1
f 29/5/1 26/5/1 25/5/1
f 30/5/1 26/5/1 29/5/1
f 33/3/1 28/3/1 27/3/1
f 34/3/1 28/3/1 33/3/1
f 35/3/1 32/3/1 31/3/1
f 36/3/1 32/3/1 35/3/1
f 37/1/1 36/1/1 35/1/1
f 38/1/1 36/1/1 37/1/1
f 43/6/1 40/6/1 39/6/1
f 44/6/1 40/6/1 43/6/1
f 45/6/1 42/6/1 41/6/1
f 46/6/1 42/6/1 45/6/1
f 47/6/1 42/6/1 46/6/1
f 48/6/1 46/6/1 45/6/1
f 49/6/1 46/6/1 48/6/1
f 52/1/1 51/1/1 50/1/1
f 53/1/1 51/1/1 52/1/1
f 56/3/1 55/3/1 54/3/1
f 57/3/1 55/3/1 56/3/1
f 58/3/2 59/3/2 60/3/2
f 60/3/2 59/3/2 61/3/2
f 62/1/2 63/1/2 64/1/2
f 64/1/2 63/1/2 65/1/2
f 66/6/2 67/6/2 70/6/2
f 70/6/2 67/6/2 71/6/2
f 68/6/2 69/6/2 72/6/2
f 72/6/2 69/6/2 73/6/2
f 73/6/2 69/6/2 74/6/2
f 72/6/2 73/6/2 75/6/2
f 75/6/2 73/6/2 76/6/2
f 77/3/2 78/3/2 79/3/2
f 79/3/2 78/3/2 80/3/2
f 81/5/2 82/5/2 85/5/2
f 85/5/2 82/5/2 86/5/2
f 83/3/2 84/3/2 89/3/2
f 89/3/2 84/3/2 90/3/2
f 87/3/2 88/3/2 91/3/2
f 91/3/2 88/3/2 92/3/2
f 91/1/2 92/1/2 93/1/2
f 93/1/2 92/1/2 94/1/2
f 95/3/2 96/3/2 98/3/2
f 98/3/2 96/3/2 99/3/2
f 98/4/2 99/4/2 101/4/2
f 101/4/2 99/4/2 102/4/2
f 98/4/2 101/4/2 103/4/2
f 102/4/2 99/4/2 104/4/2
f 97/3/2 98/3/2 105/3/2
f 103/4/2 104/4/2 106/4/2
f 105/3/2 98/3/2 106/3/2
f 98/4/2 103/4/2 106/4/2
f 99/3/2 100/3/2 107/3/2
f 106/4/2 104/4/2 107/4/2
f 104/4/2 99/4/2 107/4/2
f 107/3/2 100/3/2 108/3/2
f 106/3/2 107/3/2 109/3/2
f 109/3/2 107/3/2 110/3/2
f 111/2/2 112/2/2 113/2/2
f 113/2/2 112/2/2 114/2/2
f 117/3/3 116/3/3 115/3/3
f 118/3/3 116/3/3 117/3/3
f 121/5/3 119/5/3 118/5/3
f 122/5/3 119/5/3 121/5/3
f 123/3/3 121/3/3 120/3/3
f 124/3/3 121/3/3 123/3/3
f 129/3/3 126/3/3 125/3/3
f 130/3/3 126/3/3 129/3/3
f 131/3/3 128/3/3 127/3/3
f 132/3/3 128/3/3 131/3/3
f 135/6/3 134/6/3 133/6/3
f 136/6/3 134/6/3 135/6/3
f 137/4/3 130/4/3 129/4/3
f 137/4/3 131/4/3 130/4/3
f 138/4/3 131/4/3 137/4/3
f 139/4/3 131/4/3 138/4/3
f 141/3/3 138/3/3 137/3/3
f 142/3/3 138/3/3 141/3/3
f 143/3/3 140/3/3 139/3/3
f 144/3/3 140/3/3 143/3/3
f 147/2/3 146/2/3 145/2/3
f 148/2/3 146/2/3 147/2/3
f 152/3/3 150/3/3 149/3/3
f 153/1/3 151/1/3 150/1/3
f 153/3/3 150/3/3 152/3/3
f 154/1/3 151/1/3 153/1/3
f 155/1/3 151/1/3 154/1/3
f 157/6/3 154/6/3 153/6/3
f 158/6/3 154/6/3 157/6/3
f 160/3/3 157/3/3 156/3/3
f 161/1/3 159/1/3 158/1/3
f 161/3/3 157/3/3 160/3/3
f 161/1/3 158/1/3 157/1/3
f 162/1/3 159/1/3 161/1/3
f 165/2/3 164/2/3 163/2/3
f 166/2/3 164/2/3 165/2/3
f 167/3/4 168/3/4 170/3/4
f 168/1/4 169/1/4 171/1/4
f 170/3/4 168/3/4 171/3/4
f 171/1/4 169/1/4 172/1/4
f 172/1/4 169/1/4 173/1/4
f 174/3/4 175/3/4 178/3/4
f 176/1/4 177/1/4 179/1/4
f 178/3/4 175/3/4 179/3/4
f 175/1/4 176/1/4 179/1/4
f 179/1/4 177/1/4 180/1/4
f 181/2/4 182/2/4 183/2/4
f 183/2/4 182/2/4 184/2/4
f 185/6/4 186/6/4 187/6/4
f 187/6/4 186/6/4 188/6/4
f 189/2/4 190/2/4 191/2/4
f 191/2/4 190/2/4 192/2/4
f 193/3/4 194/3/4 197/3/4
f 197/3/4 194/3/4 198/3/4
f 195/3/4 196/3/4 199/3/4
f 199/3/4 196/3/4 200/3/4
f 201/6/4 202/6/4 203/6/4
f 203/6/4 202/6/4 204/6/4
f 205/3/4 206/3/4 209/3/4
f 209/3/4 206/3/4 210/3/4
f 207/3/4 208/3/4 211/3/4
f 211/3/4 208/3/4 212/3/4
f 213/3/4 214/3/4 216/3/4
f 216/3/4 214/3/4 217/3/4
f 215/3/4 216/3/4 219/3/4
f 216/4/4 217/4/4 220/4/4
f 219/3/4 216/3/4 220/3/4
f 217/3/4 218/3/4 221/3/4
f 220/4/4 217/4/4 221/4/4
f 221/3/4 218/3/4 222/3/4
f 220/3/4 221/3/4 223/3/4
f 223/3/4 221/3/4 224/3/4
f 229/3/5 226/3/5 225/3/5
f 230/4/5 227/4/5 226/4/5
f 230/3/5 226/3/5 229/3/5
f 231/3/5 228/3/5 227/3/5
f 231/4/5 227/4/5 230/4/5
f 232/3/5 228/3/5 231/3/5
f 233/3/5 231/3/5 230/3/5
f 234/3/5 231/3/5 233/3/5
f 239/3/5 236/3/5 235/3/5
f 240/3/5 236/3/5 239/3/5
f 241/3/5 238/3/5 237/3/5
f 242/3/5 238/3/5 241/3/5
f 247/3/5 244/3/5 243/3/5
f 248/3/5 244/3/5 247/3/5
f 249/3/5 246/3/5 245/3/5
f 250/3/5 246/3/5 249/3/5
f 255/2/5 252/2/5 251/2/5
f 256/2/5 252/2/5 255/2/5
f 257/2/5 254/2/5 253/2/5
f 258/2/5 254/2/5 257/2/5
f 261/5/5 260/5/5 259/5/5
f 262/5/5 260/5/5 261/5/5
f 263/2/6 264/2/6 267/2/6
f 267/2/6 264/2/6 268/2/6
f 265/2/6 266/2/6 269/2/6
f 269/2/6 266/2/6 270/2/6
f 271/3/6 272/3/6 275/3/6
f 275/3/6 272/3/6 276/3/6
f 273/3/6 274/3/6 277/3/6
f 277/3/6 274/3/6 278/3/6
f 279/3/6 280/3/6 283/3/6
f 283/3/6 280/3/6 284/3/6
f 281/3/6 282/3/6 285/3/6
f 285/3/6 282/3/6 286/3/6
f 287/5/6 288/5/6 290/5/6
f 290/5/6 288/5/6 291/5/6
f 291/5/6 288/5/6 292/5/6
f 292/5/6 288/5/6 293/5/6
f 289/3/6 290/3/6 295/3/6
f 290/4/6 291/4/6 295/4/6
f 295/4/6 291/4/6 296/4/6
f 292/4/6 293/4/6 297/4/6
f 293/3/6 294/3/6 298/3/6
f 297/4/6 293/4/6 298/4/6
f 289/3/6 295/3/6 299/3/6
f 298/3/6 294/3/6 302/3/6
f 289/3/6 299/3/6 303/3/6
f 299/4/6 300/4/6 304/4/6
f 303/3/6 299/3/6 304/3/6
f 304/4/6 300/4/6 305/4/6
f 301/4/6 302/4/6 306/4/6
f 302/3/6 294/3/6 307/3/6
f 306/4/6 302/4/6 307/4/6
f 307/3/6 294/3/6 308/3/6
f 304/3/6 305/3/6 309/3/6
f 305/3/6 306/3/6 309/3/6
f 306/3/6 307/3/6 309/3/6
f 309/3/6 307/3/6 310/3/6
f 311/6/6 312/6/6 313/6/6
f 313/6/6 312/6/6 314/6/6
f 315/6/6 316/6/6 317/6/6
f 317/6/6 316/6/6 318/6/6
f 319/6/6 320/6/6 321/6/6
f 321/6/6 320/6/6 322/6/6
f 321/6/6 322/6/6 323/6/6
f 323/6/6 322/6/6 324/6/6
f 325/1/6 326/1/6 329/1/6
f 329/1/6 326/1/6 330/1/6
f 327/1/6 328/1/6 331/1/6
f 331/1/6 328/1/6 332/1/6
