# MagicaVoxel @ Ephtracy

# group
o 

# material
mtllib Dragon_small-0.mtl
usemtl palette

# normals
vn -1 0 0
vn 1 0 0
vn 0 0 1
vn 0 0 -1
vn 0 -1 0
vn 0 1 0

# texcoords
vt 0.853516 0.5
vt 0.857422 0.5
vt 0.884766 0.5

# verts
v -3.1 0.5 0.9
v -3.1 0.5 0.8
v -3.1 0.5 0.7
v -3.1 0.5 0.6
v -3.1 0.5 0.5
v -3.1 0.5 0.4
v -3.1 0.6 0.9
v -3.1 0.6 0.8
v -3.1 0.6 0.7
v -3.1 0.6 0.6
v -3.1 0.6 0.5
v -3.1 0.6 0.4
v -3.1 0.7 0.9
v -3.1 0.7 0.4
v -2.8 0.5 0.9
v -2.8 0.5 0.8
v -2.8 0.5 0.7
v -2.8 0.5 0.6
v -2.8 0.5 0.5
v -2.8 0.5 0.4
v -2.8 0.6 0.9
v -2.8 0.6 0.8
v -2.8 0.6 0.7
v -2.8 0.6 0.6
v -2.8 0.6 0.5
v -2.8 0.6 0.4
v -3 0.5 0.9
v -3 0.5 0.8
v -3 0.5 0.7
v -3 0.5 0.6
v -3 0.5 0.5
v -3 0.5 0.4
v -3 0.6 0.9
v -3 0.6 0.8
v -3 0.6 0.7
v -3 0.6 0.6
v -3 0.6 0.5
v -3 0.6 0.4
v -2.7 0.5 0.9
v -2.7 0.5 0.8
v -2.7 0.5 0.7
v -2.7 0.5 0.6
v -2.7 0.5 0.5
v -2.7 0.5 0.4
v -2.7 0.6 0.9
v -2.7 0.6 0.8
v -2.7 0.6 0.7
v -2.7 0.6 0.6
v -2.7 0.6 0.5
v -2.7 0.6 0.4
v -2.7 0.7 0.9
v -2.7 0.7 0.4
v -3.1 0.5 0.9
v -3.1 0.6 0.9
v -3.1 0.7 0.9
v -3 0.5 0.9
v -3 0.6 0.9
v -2.8 0.5 0.9
v -2.8 0.6 0.9
v -2.7 0.5 0.9
v -2.7 0.6 0.9
v -2.7 0.7 0.9
v -3.1 0.5 0.7
v -3.1 0.6 0.7
v -3 0.5 0.7
v -3 0.6 0.7
v -2.8 0.5 0.7
v -2.8 0.6 0.7
v -2.7 0.5 0.7
v -2.7 0.6 0.7
v -3.1 0.5 0.5
v -3.1 0.6 0.5
v -3 0.5 0.5
v -3 0.6 0.5
v -2.8 0.5 0.5
v -2.8 0.6 0.5
v -2.7 0.5 0.5
v -2.7 0.6 0.5
v -3.1 0.5 0.8
v -3.1 0.6 0.8
v -3 0.5 0.8
v -3 0.6 0.8
v -2.8 0.5 0.8
v -2.8 0.6 0.8
v -2.7 0.5 0.8
v -2.7 0.6 0.8
v -3.1 0.5 0.6
v -3.1 0.6 0.6
v -3 0.5 0.6
v -3 0.6 0.6
v -2.8 0.5 0.6
v -2.8 0.6 0.6
v -2.7 0.5 0.6
v -2.7 0.6 0.6
v -3.1 0.5 0.4
v -3.1 0.6 0.4
v -3.1 0.7 0.4
v -3 0.5 0.4
v -3 0.6 0.4
v -3 0.7 0.4
v -2.8 0.5 0.4
v -2.8 0.6 0.4
v -2.8 0.7 0.4
v -2.7 0.5 0.4
v -2.7 0.6 0.4
v -2.7 0.7 0.4
v -3.1 0.5 0.9
v -3 0.5 0.9
v -2.8 0.5 0.9
v -2.7 0.5 0.9
v -3.1 0.5 0.8
v -3 0.5 0.8
v -2.8 0.5 0.8
v -2.7 0.5 0.8
v -3.1 0.5 0.7
v -3 0.5 0.7
v -2.8 0.5 0.7
v -2.7 0.5 0.7
v -3.1 0.5 0.6
v -3 0.5 0.6
v -2.8 0.5 0.6
v -2.7 0.5 0.6
v -3.1 0.5 0.5
v -3 0.5 0.5
v -2.8 0.5 0.5
v -2.7 0.5 0.5
v -3.1 0.5 0.4
v -3 0.5 0.4
v -2.8 0.5 0.4
v -2.7 0.5 0.4
v -3 0.6 0.9
v -2.8 0.6 0.9
v -3.1 0.6 0.8
v -3 0.6 0.8
v -2.8 0.6 0.8
v -2.7 0.6 0.8
v -3.1 0.6 0.7
v -3 0.6 0.7
v -2.8 0.6 0.7
v -2.7 0.6 0.7
v -3.1 0.6 0.6
v -3 0.6 0.6
v -2.8 0.6 0.6
v -2.7 0.6 0.6
v -3.1 0.6 0.5
v -3 0.6 0.5
v -2.8 0.6 0.5
v -2.7 0.6 0.5
v -3 0.6 0.4
v -2.8 0.6 0.4
v -3.1 0.7 0.9
v -2.7 0.7 0.9
v -3 0.7 0.8
v -2.8 0.7 0.8
v -3.1 0.7 0.4
v -3 0.7 0.4
v -2.8 0.7 0.4
v -2.7 0.7 0.4

# faces
f 7/3/1 2/3/1 1/3/1
f 8/3/1 2/3/1 7/3/1
f 9/3/1 4/3/1 3/3/1
f 10/3/1 4/3/1 9/3/1
f 11/3/1 6/3/1 5/3/1
f 12/3/1 6/3/1 11/3/1
f 13/1/1 10/1/1 9/1/1
f 13/1/1 8/1/1 7/1/1
f 13/1/1 12/1/1 11/1/1
f 13/1/1 11/1/1 10/1/1
f 13/1/1 9/1/1 8/1/1
f 14/1/1 12/1/1 13/1/1
f 21/3/1 16/3/1 15/3/1
f 22/3/1 16/3/1 21/3/1
f 23/3/1 18/3/1 17/3/1
f 24/3/1 18/3/1 23/3/1
f 25/3/1 20/3/1 19/3/1
f 26/3/1 20/3/1 25/3/1
f 27/3/2 28/3/2 33/3/2
f 33/3/2 28/3/2 34/3/2
f 29/3/2 30/3/2 35/3/2
f 35/3/2 30/3/2 36/3/2
f 31/3/2 32/3/2 37/3/2
f 37/3/2 32/3/2 38/3/2
f 39/3/2 40/3/2 45/3/2
f 45/3/2 40/3/2 46/3/2
f 41/3/2 42/3/2 47/3/2
f 47/3/2 42/3/2 48/3/2
f 43/3/2 44/3/2 49/3/2
f 49/3/2 44/3/2 50/3/2
f 47/1/2 48/1/2 51/1/2
f 45/1/2 46/1/2 51/1/2
f 49/1/2 50/1/2 51/1/2
f 48/1/2 49/1/2 51/1/2
f 46/1/2 47/1/2 51/1/2
f 51/1/2 50/1/2 52/1/2
f 56/3/3 54/3/3 53/3/3
f 57/1/3 55/1/3 54/1/3
f 57/3/3 54/3/3 56/3/3
f 59/1/3 55/1/3 57/1/3
f 60/3/3 59/3/3 58/3/3
f 61/1/3 55/1/3 59/1/3
f 61/3/3 59/3/3 60/3/3
f 62/1/3 55/1/3 61/1/3
f 65/3/3 64/3/3 63/3/3
f 66/3/3 64/3/3 65/3/3
f 69/3/3 68/3/3 67/3/3
f 70/3/3 68/3/3 69/3/3
f 73/3/3 72/3/3 71/3/3
f 74/3/3 72/3/3 73/3/3
f 77/3/3 76/3/3 75/3/3
f 78/3/3 76/3/3 77/3/3
f 79/3/4 80/3/4 81/3/4
f 81/3/4 80/3/4 82/3/4
f 83/3/4 84/3/4 85/3/4
f 85/3/4 84/3/4 86/3/4
f 87/3/4 88/3/4 89/3/4
f 89/3/4 88/3/4 90/3/4
f 91/3/4 92/3/4 93/3/4
f 93/3/4 92/3/4 94/3/4
f 95/3/4 96/3/4 98/3/4
f 96/1/4 97/1/4 99/1/4
f 98/3/4 96/3/4 99/3/4
f 99/1/4 97/1/4 100/1/4
f 99/2/4 100/2/4 102/2/4
f 102/2/4 100/2/4 103/2/4
f 101/3/4 102/3/4 104/3/4
f 102/1/4 103/1/4 105/1/4
f 104/3/4 102/3/4 105/3/4
f 105/1/4 103/1/4 106/1/4
f 111/3/5 108/3/5 107/3/5
f 112/3/5 108/3/5 111/3/5
f 113/3/5 110/3/5 109/3/5
f 114/3/5 110/3/5 113/3/5
f 119/3/5 116/3/5 115/3/5
f 120/3/5 116/3/5 119/3/5
f 121/3/5 118/3/5 117/3/5
f 122/3/5 118/3/5 121/3/5
f 127/3/5 124/3/5 123/3/5
f 128/3/5 124/3/5 127/3/5
f 129/3/5 126/3/5 125/3/5
f 130/3/5 126/3/5 129/3/5
f 134/1/5 132/1/5 131/1/5
f 135/1/5 132/1/5 134/1/5
f 137/1/5 134/1/5 133/1/5
f 138/2/5 135/2/5 134/2/5
f 138/1/5 134/1/5 137/1/5
f 139/1/5 136/1/5 135/1/5
f 139/2/5 135/2/5 138/2/5
f 140/1/5 136/1/5 139/1/5
f 142/2/5 139/2/5 138/2/5
f 143/2/5 139/2/5 142/2/5
f 145/1/5 142/1/5 141/1/5
f 146/2/5 143/2/5 142/2/5
f 146/1/5 142/1/5 145/1/5
f 147/1/5 144/1/5 143/1/5
f 147/2/5 143/2/5 146/2/5
f 148/1/5 144/1/5 147/1/5
f 149/2/5 147/2/5 146/2/5
f 150/2/5 147/2/5 149/2/5
f 151/1/6 152/1/6 153/1/6
f 153/1/6 152/1/6 154/1/6
f 151/1/6 153/1/6 155/1/6
f 153/2/6 154/2/6 156/2/6
f 155/1/6 153/1/6 156/1/6
f 154/1/6 152/1/6 157/1/6
f 156/2/6 154/2/6 157/2/6
f 157/1/6 152/1/6 158/1/6
