# MagicaVoxel @ Ephtracy

# group
o 

# material
mtllib Dragon_small-1.mtl
usemtl palette

# normals
vn -1 0 0
vn 1 0 0
vn 0 0 1
vn 0 0 -1
vn 0 -1 0
vn 0 1 0

# texcoords
vt 0.853516 0.5
vt 0.857422 0.5
vt 0.884766 0.5

# verts
v -3.1 0.2 0.9
v -3.1 0.2 0.4
v -3.1 0.3 0.9
v -3.1 0.3 0.8
v -3.1 0.3 0.7
v -3.1 0.3 0.6
v -3.1 0.3 0.5
v -3.1 0.3 0.4
v -3.1 0.4 0.9
v -3.1 0.4 0.8
v -3.1 0.4 0.7
v -3.1 0.4 0.6
v -3.1 0.4 0.5
v -3.1 0.4 0.4
v -2.8 0.3 0.9
v -2.8 0.3 0.8
v -2.8 0.3 0.7
v -2.8 0.3 0.6
v -2.8 0.3 0.5
v -2.8 0.3 0.4
v -2.8 0.4 0.9
v -2.8 0.4 0.8
v -2.8 0.4 0.7
v -2.8 0.4 0.6
v -2.8 0.4 0.5
v -2.8 0.4 0.4
v -3 0.3 0.9
v -3 0.3 0.8
v -3 0.3 0.7
v -3 0.3 0.6
v -3 0.3 0.5
v -3 0.3 0.4
v -3 0.4 0.9
v -3 0.4 0.8
v -3 0.4 0.7
v -3 0.4 0.6
v -3 0.4 0.5
v -3 0.4 0.4
v -2.7 0.2 0.9
v -2.7 0.2 0.4
v -2.7 0.3 0.9
v -2.7 0.3 0.8
v -2.7 0.3 0.7
v -2.7 0.3 0.6
v -2.7 0.3 0.5
v -2.7 0.3 0.4
v -2.7 0.4 0.9
v -2.7 0.4 0.8
v -2.7 0.4 0.7
v -2.7 0.4 0.6
v -2.7 0.4 0.5
v -2.7 0.4 0.4
v -3.1 0.2 0.9
v -3.1 0.3 0.9
v -3.1 0.4 0.9
v -3 0.3 0.9
v -3 0.4 0.9
v -2.8 0.3 0.9
v -2.8 0.4 0.9
v -2.7 0.2 0.9
v -2.7 0.3 0.9
v -2.7 0.4 0.9
v -3.1 0.3 0.7
v -3.1 0.4 0.7
v -3 0.3 0.7
v -3 0.4 0.7
v -2.8 0.3 0.7
v -2.8 0.4 0.7
v -2.7 0.3 0.7
v -2.7 0.4 0.7
v -3.1 0.3 0.5
v -3.1 0.4 0.5
v -3 0.3 0.5
v -3 0.4 0.5
v -2.8 0.3 0.5
v -2.8 0.4 0.5
v -2.7 0.3 0.5
v -2.7 0.4 0.5
v -3.1 0.3 0.8
v -3.1 0.4 0.8
v -3 0.3 0.8
v -3 0.4 0.8
v -2.8 0.3 0.8
v -2.8 0.4 0.8
v -2.7 0.3 0.8
v -2.7 0.4 0.8
v -3.1 0.3 0.6
v -3.1 0.4 0.6
v -3 0.3 0.6
v -3 0.4 0.6
v -2.8 0.3 0.6
v -2.8 0.4 0.6
v -2.7 0.3 0.6
v -2.7 0.4 0.6
v -3.1 0.2 0.4
v -3.1 0.3 0.4
v -3.1 0.4 0.4
v -3 0.2 0.4
v -3 0.3 0.4
v -3 0.4 0.4
v -2.8 0.2 0.4
v -2.8 0.3 0.4
v -2.8 0.4 0.4
v -2.7 0.2 0.4
v -2.7 0.3 0.4
v -2.7 0.4 0.4
v -3.1 0.2 0.9
v -2.7 0.2 0.9
v -3 0.2 0.8
v -2.8 0.2 0.8
v -3.1 0.2 0.4
v -3 0.2 0.4
v -2.8 0.2 0.4
v -2.7 0.2 0.4
v -3 0.3 0.9
v -2.8 0.3 0.9
v -3.1 0.3 0.8
v -3 0.3 0.8
v -2.8 0.3 0.8
v -2.7 0.3 0.8
v -3.1 0.3 0.7
v -3 0.3 0.7
v -2.8 0.3 0.7
v -2.7 0.3 0.7
v -3.1 0.3 0.6
v -3 0.3 0.6
v -2.8 0.3 0.6
v -2.7 0.3 0.6
v -3.1 0.3 0.5
v -3 0.3 0.5
v -2.8 0.3 0.5
v -2.7 0.3 0.5
v -3 0.3 0.4
v -2.8 0.3 0.4
v -3.1 0.4 0.9
v -3 0.4 0.9
v -2.8 0.4 0.9
v -2.7 0.4 0.9
v -3.1 0.4 0.8
v -3 0.4 0.8
v -2.8 0.4 0.8
v -2.7 0.4 0.8
v -3.1 0.4 0.7
v -3 0.4 0.7
v -2.8 0.4 0.7
v -2.7 0.4 0.7
v -3.1 0.4 0.6
v -3 0.4 0.6
v -2.8 0.4 0.6
v -2.7 0.4 0.6
v -3.1 0.4 0.5
v -3 0.4 0.5
v -2.8 0.4 0.5
v -2.7 0.4 0.5
v -3.1 0.4 0.4
v -3 0.4 0.4
v -2.8 0.4 0.4
v -2.7 0.4 0.4

# faces
f 3/1/1 2/1/1 1/1/1
f 4/1/1 2/1/1 3/1/1
f 5/1/1 2/1/1 4/1/1
f 6/1/1 2/1/1 5/1/1
f 7/1/1 2/1/1 6/1/1
f 8/1/1 2/1/1 7/1/1
f 9/3/1 4/3/1 3/3/1
f 10/3/1 4/3/1 9/3/1
f 11/3/1 6/3/1 5/3/1
f 12/3/1 6/3/1 11/3/1
f 13/3/1 8/3/1 7/3/1
f 14/3/1 8/3/1 13/3/1
f 21/3/1 16/3/1 15/3/1
f 22/3/1 16/3/1 21/3/1
f 23/3/1 18/3/1 17/3/1
f 24/3/1 18/3/1 23/3/1
f 25/3/1 20/3/1 19/3/1
f 26/3/1 20/3/1 25/3/1
f 27/3/2 28/3/2 33/3/2
f 33/3/2 28/3/2 34/3/2
f 29/3/2 30/3/2 35/3/2
f 35/3/2 30/3/2 36/3/2
f 31/3/2 32/3/2 37/3/2
f 37/3/2 32/3/2 38/3/2
f 39/1/2 40/1/2 41/1/2
f 41/1/2 40/1/2 42/1/2
f 42/1/2 40/1/2 43/1/2
f 43/1/2 40/1/2 44/1/2
f 44/1/2 40/1/2 45/1/2
f 45/1/2 40/1/2 46/1/2
f 41/3/2 42/3/2 47/3/2
f 47/3/2 42/3/2 48/3/2
f 43/3/2 44/3/2 49/3/2
f 49/3/2 44/3/2 50/3/2
f 45/3/2 46/3/2 51/3/2
f 51/3/2 46/3/2 52/3/2
f 56/1/3 54/1/3 53/1/3
f 56/3/3 55/3/3 54/3/3
f 57/3/3 55/3/3 56/3/3
f 58/1/3 56/1/3 53/1/3
f 60/1/3 58/1/3 53/1/3
f 61/3/3 59/3/3 58/3/3
f 61/1/3 58/1/3 60/1/3
f 62/3/3 59/3/3 61/3/3
f 65/3/3 64/3/3 63/3/3
f 66/3/3 64/3/3 65/3/3
f 69/3/3 68/3/3 67/3/3
f 70/3/3 68/3/3 69/3/3
f 73/3/3 72/3/3 71/3/3
f 74/3/3 72/3/3 73/3/3
f 77/3/3 76/3/3 75/3/3
f 78/3/3 76/3/3 77/3/3
f 79/3/4 80/3/4 81/3/4
f 81/3/4 80/3/4 82/3/4
f 83/3/4 84/3/4 85/3/4
f 85/3/4 84/3/4 86/3/4
f 87/3/4 88/3/4 89/3/4
f 89/3/4 88/3/4 90/3/4
f 91/3/4 92/3/4 93/3/4
f 93/3/4 92/3/4 94/3/4
f 95/1/4 96/1/4 98/1/4
f 96/3/4 97/3/4 99/3/4
f 98/1/4 96/1/4 99/1/4
f 99/3/4 97/3/4 100/3/4
f 98/2/4 99/2/4 101/2/4
f 101/2/4 99/2/4 102/2/4
f 101/1/4 102/1/4 104/1/4
f 102/3/4 103/3/4 105/3/4
f 104/1/4 102/1/4 105/1/4
f 105/3/4 103/3/4 106/3/4
f 109/1/5 108/1/5 107/1/5
f 110/1/5 108/1/5 109/1/5
f 111/1/5 109/1/5 107/1/5
f 112/2/5 110/2/5 109/2/5
f 112/1/5 109/1/5 111/1/5
f 113/1/5 108/1/5 110/1/5
f 113/2/5 110/2/5 112/2/5
f 114/1/5 108/1/5 113/1/5
f 115/1/6 116/1/6 118/1/6
f 118/1/6 116/1/6 119/1/6
f 117/1/6 118/1/6 121/1/6
f 118/2/6 119/2/6 122/2/6
f 121/1/6 118/1/6 122/1/6
f 119/1/6 120/1/6 123/1/6
f 122/2/6 119/2/6 123/2/6
f 123/1/6 120/1/6 124/1/6
f 122/2/6 123/2/6 126/2/6
f 126/2/6 123/2/6 127/2/6
f 125/1/6 126/1/6 129/1/6
f 126/2/6 127/2/6 130/2/6
f 129/1/6 126/1/6 130/1/6
f 127/1/6 128/1/6 131/1/6
f 130/2/6 127/2/6 131/2/6
f 131/1/6 128/1/6 132/1/6
f 130/2/6 131/2/6 133/2/6
f 133/2/6 131/2/6 134/2/6
f 135/3/6 136/3/6 139/3/6
f 139/3/6 136/3/6 140/3/6
f 137/3/6 138/3/6 141/3/6
f 141/3/6 138/3/6 142/3/6
f 143/3/6 144/3/6 147/3/6
f 147/3/6 144/3/6 148/3/6
f 145/3/6 146/3/6 149/3/6
f 149/3/6 146/3/6 150/3/6
f 151/3/6 152/3/6 155/3/6
f 155/3/6 152/3/6 156/3/6
f 153/3/6 154/3/6 157/3/6
f 157/3/6 154/3/6 158/3/6
