# MagicaVoxel @ Ephtracy

# group
o 

# material
mtllib Dragon_large-2.mtl
usemtl palette

# normals
vn -1 0 0
vn 1 0 0
vn 0 0 1
vn 0 0 -1
vn 0 -1 0
vn 0 1 0

# texcoords
vt 0.884766 0.5
vt 0.888672 0.5

# verts
v 3.5 2.3 0.8
v 3.5 2.3 0.6
v 3.5 2.5 0.8
v 3.5 2.5 0.6
v 3.9 1.9 0.8
v 3.9 1.9 0.6
v 3.9 2.1 0.8
v 3.9 2.1 0.6
v 3.9 2.3 0.8
v 3.9 2.3 0.6
v 4.1 2.1 0.8
v 4.1 2.1 0.6
v 4.1 2.3 0.8
v 4.1 2.3 0.6
v 4.1 2.5 0.8
v 4.1 2.5 0.6
v 4.3 1.9 0.8
v 4.3 1.9 0.6
v 4.3 2.1 0.8
v 4.3 2.1 0.6
v 3.5 2.3 0.8
v 3.5 2.5 0.8
v 3.7 2.3 0.8
v 3.7 2.5 0.8
v 3.9 1.9 0.8
v 3.9 2.1 0.8
v 3.9 2.3 0.8
v 3.9 2.5 0.8
v 4.1 1.9 0.8
v 4.1 2.1 0.8
v 4.1 2.3 0.8
v 4.1 2.5 0.8
v 4.3 1.9 0.8
v 4.3 2.1 0.8
v 3.5 2.3 0.6
v 3.5 2.5 0.6
v 3.7 2.3 0.6
v 3.7 2.5 0.6
v 3.9 1.9 0.6
v 3.9 2.1 0.6
v 3.9 2.3 0.6
v 3.9 2.5 0.6
v 4.1 1.9 0.6
v 4.1 2.1 0.6
v 4.1 2.3 0.6
v 4.1 2.5 0.6
v 4.3 1.9 0.6
v 4.3 2.1 0.6
v 3.9 1.9 0.8
v 4.1 1.9 0.8
v 4.3 1.9 0.8
v 3.9 1.9 0.6
v 4.1 1.9 0.6
v 4.3 1.9 0.6
v 3.5 2.3 0.8
v 3.7 2.3 0.8
v 3.9 2.3 0.8
v 3.5 2.3 0.6
v 3.7 2.3 0.6
v 3.9 2.3 0.6
v 4.1 2.1 0.8
v 4.3 2.1 0.8
v 4.1 2.1 0.6
v 4.3 2.1 0.6
v 3.5 2.5 0.8
v 3.7 2.5 0.8
v 3.9 2.5 0.8
v 4.1 2.5 0.8
v 3.5 2.5 0.6
v 3.7 2.5 0.6
v 3.9 2.5 0.6
v 4.1 2.5 0.6

# faces
f 3/1/1 2/1/1 1/1/1
f 4/1/1 2/1/1 3/1/1
f 7/1/1 6/1/1 5/1/1
f 8/1/1 6/1/1 7/1/1
f 9/2/1 8/2/1 7/2/1
f 10/2/1 8/2/1 9/2/1
f 11/2/2 12/2/2 13/2/2
f 13/2/2 12/2/2 14/2/2
f 13/1/2 14/1/2 15/1/2
f 15/1/2 14/1/2 16/1/2
f 17/2/2 18/2/2 19/2/2
f 19/2/2 18/2/2 20/2/2
f 23/1/3 22/1/3 21/1/3
f 24/1/3 22/1/3 23/1/3
f 27/2/3 24/2/3 23/2/3
f 28/2/3 24/2/3 27/2/3
f 29/1/3 26/1/3 25/1/3
f 30/2/3 27/2/3 26/2/3
f 30/1/3 26/1/3 29/1/3
f 31/1/3 28/1/3 27/1/3
f 31/2/3 27/2/3 30/2/3
f 32/1/3 28/1/3 31/1/3
f 33/2/3 30/2/3 29/2/3
f 34/2/3 30/2/3 33/2/3
f 35/1/4 36/1/4 37/1/4
f 37/1/4 36/1/4 38/1/4
f 37/2/4 38/2/4 41/2/4
f 41/2/4 38/2/4 42/2/4
f 39/1/4 40/1/4 43/1/4
f 40/2/4 41/2/4 44/2/4
f 43/1/4 40/1/4 44/1/4
f 41/1/4 42/1/4 45/1/4
f 44/2/4 41/2/4 45/2/4
f 45/1/4 42/1/4 46/1/4
f 43/2/4 44/2/4 47/2/4
f 47/2/4 44/2/4 48/2/4
f 52/1/5 50/1/5 49/1/5
f 53/2/5 51/2/5 50/2/5
f 53/1/5 50/1/5 52/1/5
f 54/2/5 51/2/5 53/2/5
f 58/1/5 56/1/5 55/1/5
f 59/2/5 57/2/5 56/2/5
f 59/1/5 56/1/5 58/1/5
f 60/2/5 57/2/5 59/2/5
f 61/2/6 62/2/6 63/2/6
f 63/2/6 62/2/6 64/2/6
f 65/1/6 66/1/6 69/1/6
f 66/2/6 67/2/6 70/2/6
f 69/1/6 66/1/6 70/1/6
f 67/1/6 68/1/6 71/1/6
f 70/2/6 67/2/6 71/2/6
f 71/1/6 68/1/6 72/1/6
