# MagicaVoxel @ Ephtracy

# group
o 

# material
mtllib Dragon_large-6.mtl
usemtl palette

# normals
vn -1 0 0
vn 1 0 0
vn 0 0 1
vn 0 0 -1
vn 0 -1 0
vn 0 1 0

# texcoords
vt 0.0292969 0.5
vt 0.822266 0.5
vt 0.826172 0.5

# verts
v 3.8 1.3 -0.7
v 3.8 1.3 -0.8
v 3.8 1.4 -0.7
v 3.8 1.4 -0.8
v 3.9 1.3 -0.5
v 3.9 1.3 -0.7
v 3.9 1.3 -0.8
v 3.9 1.3 -1
v 3.9 1.4 -0.5
v 3.9 1.4 -0.7
v 3.9 1.4 -0.8
v 3.9 1.4 -1
v 4 1.3 -0.4
v 4 1.3 -0.5
v 4 1.3 -1
v 4 1.3 -1.1
v 4 1.4 -0.4
v 4 1.4 -0.5
v 4 1.4 -1
v 4 1.4 -1.1
v 4.2 1.3 -0.4
v 4.2 1.3 -0.5
v 4.2 1.3 -1
v 4.2 1.3 -1.1
v 4.2 1.4 -0.4
v 4.2 1.4 -0.5
v 4.2 1.4 -1
v 4.2 1.4 -1.1
v 4.4 1.3 -0.4
v 4.4 1.3 -0.5
v 4.4 1.3 -1
v 4.4 1.3 -1.1
v 4.4 1.4 -0.4
v 4.4 1.4 -0.5
v 4.4 1.4 -1
v 4.4 1.4 -1.1
v 4.1 1.3 -0.4
v 4.1 1.3 -0.5
v 4.1 1.3 -1
v 4.1 1.3 -1.1
v 4.1 1.4 -0.4
v 4.1 1.4 -0.5
v 4.1 1.4 -1
v 4.1 1.4 -1.1
v 4.3 1.3 -0.4
v 4.3 1.3 -0.5
v 4.3 1.3 -1
v 4.3 1.3 -1.1
v 4.3 1.4 -0.4
v 4.3 1.4 -0.5
v 4.3 1.4 -1
v 4.3 1.4 -1.1
v 4.5 1.3 -0.4
v 4.5 1.3 -0.5
v 4.5 1.3 -0.6
v 4.5 1.3 -0.9
v 4.5 1.3 -1
v 4.5 1.3 -1.1
v 4.5 1.4 -0.4
v 4.5 1.4 -0.5
v 4.5 1.4 -0.6
v 4.5 1.4 -0.9
v 4.5 1.4 -1
v 4.5 1.4 -1.1
v 4.6 1.3 -0.6
v 4.6 1.3 -0.7
v 4.6 1.3 -0.8
v 4.6 1.3 -0.9
v 4.6 1.4 -0.6
v 4.6 1.4 -0.7
v 4.6 1.4 -0.8
v 4.6 1.4 -0.9
v 4.7 1.3 -0.7
v 4.7 1.3 -0.8
v 4.7 1.4 -0.7
v 4.7 1.4 -0.8
v 4 1.3 -0.4
v 4 1.4 -0.4
v 4.1 1.3 -0.4
v 4.1 1.4 -0.4
v 4.2 1.3 -0.4
v 4.2 1.4 -0.4
v 4.3 1.3 -0.4
v 4.3 1.4 -0.4
v 4.4 1.3 -0.4
v 4.4 1.4 -0.4
v 4.5 1.3 -0.4
v 4.5 1.4 -0.4
v 3.9 1.3 -0.5
v 3.9 1.4 -0.5
v 4 1.3 -0.5
v 4 1.4 -0.5
v 4.1 1.3 -0.5
v 4.1 1.4 -0.5
v 4.2 1.3 -0.5
v 4.2 1.4 -0.5
v 4.3 1.3 -0.5
v 4.3 1.4 -0.5
v 4.4 1.3 -0.5
v 4.4 1.4 -0.5
v 4.5 1.3 -0.6
v 4.5 1.4 -0.6
v 4.6 1.3 -0.6
v 4.6 1.4 -0.6
v 3.8 1.3 -0.7
v 3.8 1.4 -0.7
v 3.9 1.3 -0.7
v 3.9 1.4 -0.7
v 4.6 1.3 -0.7
v 4.6 1.4 -0.7
v 4.7 1.3 -0.7
v 4.7 1.4 -0.7
v 3.8 1.3 -0.8
v 3.8 1.4 -0.8
v 3.9 1.3 -0.8
v 3.9 1.4 -0.8
v 4.6 1.3 -0.8
v 4.6 1.4 -0.8
v 4.7 1.3 -0.8
v 4.7 1.4 -0.8
v 4.5 1.3 -0.9
v 4.5 1.4 -0.9
v 4.6 1.3 -0.9
v 4.6 1.4 -0.9
v 3.9 1.3 -1
v 3.9 1.4 -1
v 4 1.3 -1
v 4 1.4 -1
v 4.1 1.3 -1
v 4.1 1.4 -1
v 4.2 1.3 -1
v 4.2 1.4 -1
v 4.3 1.3 -1
v 4.3 1.4 -1
v 4.4 1.3 -1
v 4.4 1.4 -1
v 4 1.3 -1.1
v 4 1.4 -1.1
v 4.1 1.3 -1.1
v 4.1 1.4 -1.1
v 4.2 1.3 -1.1
v 4.2 1.4 -1.1
v 4.3 1.3 -1.1
v 4.3 1.4 -1.1
v 4.4 1.3 -1.1
v 4.4 1.4 -1.1
v 4.5 1.3 -1.1
v 4.5 1.4 -1.1
v 4 1.3 -0.4
v 4.1 1.3 -0.4
v 4.2 1.3 -0.4
v 4.3 1.3 -0.4
v 4.4 1.3 -0.4
v 4.5 1.3 -0.4
v 3.9 1.3 -0.5
v 4 1.3 -0.5
v 4.1 1.3 -0.5
v 4.2 1.3 -0.5
v 4.3 1.3 -0.5
v 4.4 1.3 -0.5
v 4.5 1.3 -0.5
v 4 1.3 -0.6
v 4.1 1.3 -0.6
v 4.2 1.3 -0.6
v 4.3 1.3 -0.6
v 4.4 1.3 -0.6
v 4.5 1.3 -0.6
v 4.6 1.3 -0.6
v 3.8 1.3 -0.7
v 3.9 1.3 -0.7
v 4 1.3 -0.7
v 4.1 1.3 -0.7
v 4.2 1.3 -0.7
v 4.3 1.3 -0.7
v 4.4 1.3 -0.7
v 4.5 1.3 -0.7
v 4.6 1.3 -0.7
v 4.7 1.3 -0.7
v 3.8 1.3 -0.8
v 3.9 1.3 -0.8
v 4 1.3 -0.8
v 4.1 1.3 -0.8
v 4.2 1.3 -0.8
v 4.3 1.3 -0.8
v 4.4 1.3 -0.8
v 4.5 1.3 -0.8
v 4.6 1.3 -0.8
v 4.7 1.3 -0.8
v 4 1.3 -0.9
v 4.1 1.3 -0.9
v 4.2 1.3 -0.9
v 4.3 1.3 -0.9
v 4.4 1.3 -0.9
v 4.5 1.3 -0.9
v 4.6 1.3 -0.9
v 3.9 1.3 -1
v 4 1.3 -1
v 4.1 1.3 -1
v 4.2 1.3 -1
v 4.3 1.3 -1
v 4.4 1.3 -1
v 4.5 1.3 -1
v 4 1.3 -1.1
v 4.1 1.3 -1.1
v 4.2 1.3 -1.1
v 4.3 1.3 -1.1
v 4.4 1.3 -1.1
v 4.5 1.3 -1.1
v 4 1.4 -0.4
v 4.1 1.4 -0.4
v 4.2 1.4 -0.4
v 4.3 1.4 -0.4
v 4.4 1.4 -0.4
v 4.5 1.4 -0.4
v 3.9 1.4 -0.5
v 4 1.4 -0.5
v 4.1 1.4 -0.5
v 4.2 1.4 -0.5
v 4.3 1.4 -0.5
v 4.4 1.4 -0.5
v 4.5 1.4 -0.5
v 4 1.4 -0.6
v 4.1 1.4 -0.6
v 4.2 1.4 -0.6
v 4.3 1.4 -0.6
v 4.4 1.4 -0.6
v 4.5 1.4 -0.6
v 4.6 1.4 -0.6
v 3.8 1.4 -0.7
v 3.9 1.4 -0.7
v 4 1.4 -0.7
v 4.1 1.4 -0.7
v 4.2 1.4 -0.7
v 4.3 1.4 -0.7
v 4.4 1.4 -0.7
v 4.5 1.4 -0.7
v 4.6 1.4 -0.7
v 4.7 1.4 -0.7
v 3.8 1.4 -0.8
v 3.9 1.4 -0.8
v 4 1.4 -0.8
v 4.1 1.4 -0.8
v 4.2 1.4 -0.8
v 4.3 1.4 -0.8
v 4.4 1.4 -0.8
v 4.5 1.4 -0.8
v 4.6 1.4 -0.8
v 4.7 1.4 -0.8
v 4 1.4 -0.9
v 4.1 1.4 -0.9
v 4.2 1.4 -0.9
v 4.3 1.4 -0.9
v 4.4 1.4 -0.9
v 4.5 1.4 -0.9
v 4.6 1.4 -0.9
v 3.9 1.4 -1
v 4 1.4 -1
v 4.1 1.4 -1
v 4.2 1.4 -1
v 4.3 1.4 -1
v 4.4 1.4 -1
v 4.5 1.4 -1
v 4 1.4 -1.1
v 4.1 1.4 -1.1
v 4.2 1.4 -1.1
v 4.3 1.4 -1.1
v 4.4 1.4 -1.1
v 4.5 1.4 -1.1

# faces
f 3/3/1 2/3/1 1/3/1
f 4/3/1 2/3/1 3/3/1
f 9/2/1 6/2/1 5/2/1
f 10/2/1 6/2/1 9/2/1
f 11/2/1 8/2/1 7/2/1
f 12/2/1 8/2/1 11/2/1
f 17/2/1 14/2/1 13/2/1
f 18/2/1 14/2/1 17/2/1
f 19/2/1 16/2/1 15/2/1
f 20/2/1 16/2/1 19/2/1
f 25/2/1 22/2/1 21/2/1
f 26/2/1 22/2/1 25/2/1
f 27/2/1 24/2/1 23/2/1
f 28/2/1 24/2/1 27/2/1
f 33/2/1 30/2/1 29/2/1
f 34/2/1 30/2/1 33/2/1
f 35/2/1 32/2/1 31/2/1
f 36/2/1 32/2/1 35/2/1
f 37/2/2 38/2/2 41/2/2
f 41/2/2 38/2/2 42/2/2
f 39/2/2 40/2/2 43/2/2
f 43/2/2 40/2/2 44/2/2
f 45/2/2 46/2/2 49/2/2
f 49/2/2 46/2/2 50/2/2
f 47/2/2 48/2/2 51/2/2
f 51/2/2 48/2/2 52/2/2
f 53/2/2 54/2/2 59/2/2
f 54/3/2 55/3/2 60/3/2
f 59/2/2 54/2/2 60/2/2
f 60/3/2 55/3/2 61/3/2
f 56/3/2 57/3/2 62/3/2
f 57/2/2 58/2/2 63/2/2
f 62/3/2 57/3/2 63/3/2
f 63/2/2 58/2/2 64/2/2
f 65/2/2 66/2/2 69/2/2
f 69/2/2 66/2/2 70/2/2
f 67/2/2 68/2/2 71/2/2
f 71/2/2 68/2/2 72/2/2
f 73/2/2 74/2/2 75/2/2
f 75/2/2 74/2/2 76/2/2
f 79/2/3 78/2/3 77/2/3
f 80/2/3 78/2/3 79/2/3
f 83/2/3 82/2/3 81/2/3
f 84/2/3 82/2/3 83/2/3
f 87/2/3 86/2/3 85/2/3
f 88/2/3 86/2/3 87/2/3
f 91/2/3 90/2/3 89/2/3
f 92/2/3 90/2/3 91/2/3
f 95/2/3 94/2/3 93/2/3
f 96/2/3 94/2/3 95/2/3
f 99/2/3 98/2/3 97/2/3
f 100/2/3 98/2/3 99/2/3
f 103/2/3 102/2/3 101/2/3
f 104/2/3 102/2/3 103/2/3
f 107/3/3 106/3/3 105/3/3
f 108/3/3 106/3/3 107/3/3
f 111/2/3 110/2/3 109/2/3
f 112/2/3 110/2/3 111/2/3
f 113/3/4 114/3/4 115/3/4
f 115/3/4 114/3/4 116/3/4
f 117/2/4 118/2/4 119/2/4
f 119/2/4 118/2/4 120/2/4
f 121/2/4 122/2/4 123/2/4
f 123/2/4 122/2/4 124/2/4
f 125/2/4 126/2/4 127/2/4
f 127/2/4 126/2/4 128/2/4
f 129/2/4 130/2/4 131/2/4
f 131/2/4 130/2/4 132/2/4
f 133/2/4 134/2/4 135/2/4
f 135/2/4 134/2/4 136/2/4
f 137/2/4 138/2/4 139/2/4
f 139/2/4 138/2/4 140/2/4
f 141/2/4 142/2/4 143/2/4
f 143/2/4 142/2/4 144/2/4
f 145/2/4 146/2/4 147/2/4
f 147/2/4 146/2/4 148/2/4
f 156/2/5 150/2/5 149/2/5
f 157/2/5 150/2/5 156/2/5
f 158/2/5 152/2/5 151/2/5
f 159/2/5 152/2/5 158/2/5
f 160/2/5 154/2/5 153/2/5
f 161/2/5 154/2/5 160/2/5
f 162/3/5 157/3/5 156/3/5
f 162/2/5 156/2/5 155/2/5
f 163/2/5 158/2/5 157/2/5
f 163/3/5 157/3/5 162/3/5
f 164/3/5 159/3/5 158/3/5
f 164/2/5 158/2/5 163/2/5
f 165/2/5 160/2/5 159/2/5
f 165/3/5 159/3/5 164/3/5
f 166/3/5 161/3/5 160/3/5
f 166/2/5 160/2/5 165/2/5
f 167/3/5 161/3/5 166/3/5
f 170/2/5 163/2/5 162/2/5
f 170/2/5 168/2/5 167/2/5
f 170/2/5 166/2/5 165/2/5
f 170/2/5 164/2/5 163/2/5
f 170/2/5 167/2/5 166/2/5
f 170/2/5 162/2/5 155/2/5
f 170/2/5 165/2/5 164/2/5
f 171/2/5 168/2/5 170/2/5
f 172/2/5 168/2/5 171/2/5
f 173/2/5 168/2/5 172/2/5
f 174/2/5 168/2/5 173/2/5
f 175/2/5 168/2/5 174/2/5
f 176/2/5 168/2/5 175/2/5
f 177/2/5 168/2/5 176/2/5
f 179/3/5 170/3/5 169/3/5
f 180/1/5 171/1/5 170/1/5
f 180/3/5 170/3/5 179/3/5
f 181/3/5 172/3/5 171/3/5
f 181/1/5 171/1/5 180/1/5
f 182/1/5 173/1/5 172/1/5
f 182/3/5 172/3/5 181/3/5
f 183/3/5 174/3/5 173/3/5
f 183/1/5 173/1/5 182/1/5
f 184/1/5 175/1/5 174/1/5
f 184/3/5 174/3/5 183/3/5
f 185/3/5 176/3/5 175/3/5
f 185/1/5 175/1/5 184/1/5
f 186/1/5 177/1/5 176/1/5
f 186/3/5 176/3/5 185/3/5
f 187/2/5 178/2/5 177/2/5
f 187/1/5 177/1/5 186/1/5
f 188/2/5 178/2/5 187/2/5
f 189/2/5 186/2/5 185/2/5
f 189/2/5 187/2/5 186/2/5
f 189/2/5 185/2/5 184/2/5
f 189/2/5 184/2/5 183/2/5
f 189/2/5 183/2/5 182/2/5
f 189/2/5 182/2/5 181/2/5
f 189/2/5 181/2/5 180/2/5
f 190/2/5 187/2/5 189/2/5
f 191/2/5 187/2/5 190/2/5
f 192/2/5 187/2/5 191/2/5
f 193/2/5 187/2/5 192/2/5
f 194/2/5 187/2/5 193/2/5
f 195/2/5 187/2/5 194/2/5
f 196/2/5 189/2/5 180/2/5
f 197/3/5 190/3/5 189/3/5
f 197/2/5 189/2/5 196/2/5
f 198/2/5 191/2/5 190/2/5
f 198/3/5 190/3/5 197/3/5
f 199/3/5 192/3/5 191/3/5
f 199/2/5 191/2/5 198/2/5
f 200/2/5 193/2/5 192/2/5
f 200/3/5 192/3/5 199/3/5
f 201/3/5 194/3/5 193/3/5
f 201/2/5 193/2/5 200/2/5
f 202/3/5 194/3/5 201/3/5
f 203/2/5 198/2/5 197/2/5
f 204/2/5 198/2/5 203/2/5
f 205/2/5 200/2/5 199/2/5
f 206/2/5 200/2/5 205/2/5
f 207/2/5 202/2/5 201/2/5
f 208/2/5 202/2/5 207/2/5
f 209/2/6 210/2/6 216/2/6
f 216/2/6 210/2/6 217/2/6
f 211/2/6 212/2/6 218/2/6
f 218/2/6 212/2/6 219/2/6
f 213/2/6 214/2/6 220/2/6
f 220/2/6 214/2/6 221/2/6
f 216/3/6 217/3/6 222/3/6
f 215/2/6 216/2/6 222/2/6
f 217/2/6 218/2/6 223/2/6
f 222/3/6 217/3/6 223/3/6
f 218/3/6 219/3/6 224/3/6
f 223/2/6 218/2/6 224/2/6
f 219/2/6 220/2/6 225/2/6
f 224/3/6 219/3/6 225/3/6
f 220/3/6 221/3/6 226/3/6
f 225/2/6 220/2/6 226/2/6
f 226/3/6 221/3/6 227/3/6
f 222/2/6 223/2/6 230/2/6
f 227/2/6 228/2/6 230/2/6
f 225/2/6 226/2/6 230/2/6
f 223/2/6 224/2/6 230/2/6
f 226/2/6 227/2/6 230/2/6
f 215/2/6 222/2/6 230/2/6
f 224/2/6 225/2/6 230/2/6
f 230/2/6 228/2/6 231/2/6
f 231/2/6 228/2/6 232/2/6
f 232/2/6 228/2/6 233/2/6
f 233/2/6 228/2/6 234/2/6
f 234/2/6 228/2/6 235/2/6
f 235/2/6 228/2/6 236/2/6
f 236/2/6 228/2/6 237/2/6
f 229/3/6 230/3/6 239/3/6
f 230/1/6 231/1/6 240/1/6
f 239/3/6 230/3/6 240/3/6
f 231/3/6 232/3/6 241/3/6
f 240/1/6 231/1/6 241/1/6
f 232/1/6 233/1/6 242/1/6
f 241/3/6 232/3/6 242/3/6
f 233/3/6 234/3/6 243/3/6
f 242/1/6 233/1/6 243/1/6
f 234/1/6 235/1/6 244/1/6
f 243/3/6 234/3/6 244/3/6
f 235/3/6 236/3/6 245/3/6
f 244/1/6 235/1/6 245/1/6
f 236/1/6 237/1/6 246/1/6
f 245/3/6 236/3/6 246/3/6
f 237/2/6 238/2/6 247/2/6
f 246/1/6 237/1/6 247/1/6
f 247/2/6 238/2/6 248/2/6
f 245/2/6 246/2/6 249/2/6
f 246/2/6 247/2/6 249/2/6
f 244/2/6 245/2/6 249/2/6
f 243/2/6 244/2/6 249/2/6
f 242/2/6 243/2/6 249/2/6
f 241/2/6 242/2/6 249/2/6
f 240/2/6 241/2/6 249/2/6
f 249/2/6 247/2/6 250/2/6
f 250/2/6 247/2/6 251/2/6
f 251/2/6 247/2/6 252/2/6
f 252/2/6 247/2/6 253/2/6
f 253/2/6 247/2/6 254/2/6
f 254/2/6 247/2/6 255/2/6
f 240/2/6 249/2/6 256/2/6
f 249/3/6 250/3/6 257/3/6
f 256/2/6 249/2/6 257/2/6
f 250/2/6 251/2/6 258/2/6
f 257/3/6 250/3/6 258/3/6
f 251/3/6 252/3/6 259/3/6
f 258/2/6 251/2/6 259/2/6
f 252/2/6 253/2/6 260/2/6
f 259/3/6 252/3/6 260/3/6
f 253/3/6 254/3/6 261/3/6
f 260/2/6 253/2/6 261/2/6
f 261/3/6 254/3/6 262/3/6
f 257/2/6 258/2/6 263/2/6
f 263/2/6 258/2/6 264/2/6
f 259/2/6 260/2/6 265/2/6
f 265/2/6 260/2/6 266/2/6
f 261/2/6 262/2/6 267/2/6
f 267/2/6 262/2/6 268/2/6
