# MagicaVoxel @ Ephtracy

# group
o 

# material
mtllib Dragon_large-0.mtl
usemtl palette

# normals
vn -1 0 0
vn 1 0 0
vn 0 0 1
vn 0 0 -1
vn 0 -1 0
vn 0 1 0

# texcoords
vt 0.853516 0.5
vt 0.857422 0.5

# verts
v 2.7 2.2 1.2
v 2.7 2.2 1.1
v 2.7 2.2 0
v 2.7 2.5 1.1
v 2.7 2.5 0
v 2.7 2.6 1.2
v 2.7 2.6 1
v 2.7 2.6 0
v 2.7 2.8 1.2
v 2.7 2.8 1
v 3.3 2.6 1.2
v 3.3 2.6 1.1
v 3.3 2.6 1
v 3.3 2.8 1.2
v 3.3 2.8 1
v 2.9 2.6 1.2
v 2.9 2.6 1.1
v 2.9 2.6 1
v 2.9 2.8 1.2
v 2.9 2.8 1
v 3.5 2.2 1.2
v 3.5 2.2 1.1
v 3.5 2.2 0
v 3.5 2.5 1.1
v 3.5 2.5 0
v 3.5 2.6 1.2
v 3.5 2.6 1
v 3.5 2.6 0
v 3.5 2.8 1.2
v 3.5 2.8 1
v 2.7 2.2 1.2
v 2.7 2.6 1.2
v 2.7 2.8 1.2
v 2.8 2.2 1.2
v 2.8 2.5 1.2
v 2.9 2.6 1.2
v 2.9 2.8 1.2
v 3.3 2.6 1.2
v 3.3 2.8 1.2
v 3.4 2.2 1.2
v 3.4 2.5 1.2
v 3.5 2.2 1.2
v 3.5 2.6 1.2
v 3.5 2.8 1.2
v 2.7 2.6 1
v 2.7 2.8 1
v 2.8 2.6 1
v 2.9 2.6 1
v 2.9 2.8 1
v 3.3 2.6 1
v 3.3 2.8 1
v 3.4 2.6 1
v 3.5 2.6 1
v 3.5 2.8 1
v 2.7 2.2 0
v 2.7 2.5 0
v 2.7 2.6 0
v 2.8 2.4 0
v 2.8 2.5 0
v 2.8 2.6 0
v 2.9 2.4 0
v 2.9 2.5 0
v 3.3 2.4 0
v 3.3 2.5 0
v 3.4 2.4 0
v 3.4 2.5 0
v 3.4 2.6 0
v 3.5 2.2 0
v 3.5 2.5 0
v 3.5 2.6 0
v 2.7 2.2 1.2
v 2.8 2.2 1.2
v 3.4 2.2 1.2
v 3.5 2.2 1.2
v 2.7 2.2 1.1
v 2.8 2.2 1.1
v 3.4 2.2 1.1
v 3.5 2.2 1.1
v 2.7 2.2 0
v 3.5 2.2 0
v 2.9 2.6 1.2
v 3.3 2.6 1.2
v 2.9 2.6 1.1
v 3.3 2.6 1.1
v 2.7 2.6 1
v 2.8 2.6 1
v 2.9 2.6 1
v 3.3 2.6 1
v 3.4 2.6 1
v 3.5 2.6 1
v 2.7 2.6 0
v 2.8 2.6 0
v 3.4 2.6 0
v 3.5 2.6 0
v 2.7 2.8 1.2
v 2.9 2.8 1.2
v 3.3 2.8 1.2
v 3.5 2.8 1.2
v 2.7 2.8 1
v 2.9 2.8 1
v 3.3 2.8 1
v 3.5 2.8 1

# faces
f 4/1/1 2/1/1 1/1/1
f 4/2/1 3/2/1 2/2/1
f 5/2/1 3/2/1 4/2/1
f 6/1/1 4/1/1 1/1/1
f 6/1/1 5/1/1 4/1/1
f 7/1/1 5/1/1 6/1/1
f 8/1/1 5/1/1 7/1/1
f 9/2/1 7/2/1 6/2/1
f 10/2/1 7/2/1 9/2/1
f 14/2/1 12/2/1 11/2/1
f 14/2/1 13/2/1 12/2/1
f 15/2/1 13/2/1 14/2/1
f 16/2/2 17/2/2 19/2/2
f 17/2/2 18/2/2 19/2/2
f 19/2/2 18/2/2 20/2/2
f 21/1/2 22/1/2 24/1/2
f 22/2/2 23/2/2 24/2/2
f 24/2/2 23/2/2 25/2/2
f 21/1/2 24/1/2 26/1/2
f 24/1/2 25/1/2 26/1/2
f 26/1/2 25/1/2 27/1/2
f 27/1/2 25/1/2 28/1/2
f 26/2/2 27/2/2 29/2/2
f 29/2/2 27/2/2 30/2/2
f 34/1/3 32/1/3 31/1/3
f 35/1/3 32/1/3 34/1/3
f 36/2/3 33/2/3 32/2/3
f 36/1/3 32/1/3 35/1/3
f 37/2/3 33/2/3 36/2/3
f 38/1/3 36/1/3 35/1/3
f 40/2/3 35/2/3 34/2/3
f 41/1/3 38/1/3 35/1/3
f 41/2/3 35/2/3 40/2/3
f 42/1/3 41/1/3 40/1/3
f 43/2/3 39/2/3 38/2/3
f 43/1/3 41/1/3 42/1/3
f 43/1/3 38/1/3 41/1/3
f 44/2/3 39/2/3 43/2/3
f 45/2/4 46/2/4 47/2/4
f 47/2/4 46/2/4 48/2/4
f 48/2/4 46/2/4 49/2/4
f 50/2/4 51/2/4 52/2/4
f 52/2/4 51/2/4 53/2/4
f 53/2/4 51/2/4 54/2/4
f 55/2/4 56/2/4 58/2/4
f 56/1/4 57/1/4 59/1/4
f 58/2/4 56/2/4 59/2/4
f 59/1/4 57/1/4 60/1/4
f 55/2/4 58/2/4 61/2/4
f 58/1/4 59/1/4 61/1/4
f 59/2/4 60/2/4 62/2/4
f 61/1/4 59/1/4 62/1/4
f 55/2/4 61/2/4 63/2/4
f 61/2/4 62/2/4 63/2/4
f 62/2/4 60/2/4 64/2/4
f 63/2/4 62/2/4 64/2/4
f 55/2/4 63/2/4 65/2/4
f 63/1/4 64/1/4 65/1/4
f 64/2/4 60/2/4 66/2/4
f 65/1/4 64/1/4 66/1/4
f 66/2/4 60/2/4 67/2/4
f 55/2/4 65/2/4 68/2/4
f 65/2/4 66/2/4 68/2/4
f 66/1/4 67/1/4 69/1/4
f 68/2/4 66/2/4 69/2/4
f 69/1/4 67/1/4 70/1/4
f 75/1/5 72/1/5 71/1/5
f 76/2/5 73/2/5 72/2/5
f 76/1/5 72/1/5 75/1/5
f 77/1/5 74/1/5 73/1/5
f 77/2/5 73/2/5 76/2/5
f 78/1/5 74/1/5 77/1/5
f 79/2/5 76/2/5 75/2/5
f 79/2/5 77/2/5 76/2/5
f 79/2/5 78/2/5 77/2/5
f 80/2/5 78/2/5 79/2/5
f 81/1/6 82/1/6 83/1/6
f 83/1/6 82/1/6 84/1/6
f 83/2/6 84/2/6 87/2/6
f 87/2/6 84/2/6 88/2/6
f 85/1/6 86/1/6 91/1/6
f 87/2/6 88/2/6 92/2/6
f 91/1/6 86/1/6 92/1/6
f 86/2/6 87/2/6 92/2/6
f 88/2/6 89/2/6 92/2/6
f 89/1/6 90/1/6 93/1/6
f 92/2/6 89/2/6 93/2/6
f 93/1/6 90/1/6 94/1/6
f 95/2/6 96/2/6 99/2/6
f 99/2/6 96/2/6 100/2/6
f 97/2/6 98/2/6 101/2/6
f 101/2/6 98/2/6 102/2/6
