# MagicaVoxel @ Ephtracy

# group
o 

# material
mtllib Dragon_large-8.mtl
usemtl palette

# normals
vn -1 0 0
vn 1 0 0
vn 0 0 1
vn 0 0 -1
vn 0 -1 0
vn 0 1 0

# texcoords
vt 0.853516 0.5
vt 0.857422 0.5
vt 0.884766 0.5

# verts
v 2.5 0 -0.4
v 2.5 0 -0.5
v 2.5 0 -0.9
v 2.5 0.1 -0.4
v 2.5 0.1 -0.5
v 2.5 0.1 -0.6
v 2.5 0.1 -0.8
v 2.5 0.5 -0.5
v 2.5 0.5 -0.6
v 2.5 0.5 -0.8
v 2.5 0.5 -0.9
v 2.6 0 -0.9
v 2.6 0 -1
v 2.6 0.1 -0.9
v 2.6 0.1 -1
v 2.8 0 -0.4
v 2.8 0 -0.5
v 2.8 0.1 -0.4
v 2.8 0.1 -0.5
v 3.3 0 -0.4
v 3.3 0 -0.5
v 3.3 0 -0.9
v 3.3 0.1 -0.4
v 3.3 0.1 -0.5
v 3.3 0.1 -0.6
v 3.3 0.1 -0.8
v 3.3 0.5 -0.5
v 3.3 0.5 -0.6
v 3.3 0.5 -0.8
v 3.3 0.5 -0.9
v 3.4 0 -0.9
v 3.4 0 -1
v 3.4 0.1 -0.9
v 3.4 0.1 -1
v 3.6 0 -0.4
v 3.6 0 -0.5
v 3.6 0.1 -0.4
v 3.6 0.1 -0.5
v 2.6 0 -0.4
v 2.6 0 -0.5
v 2.6 0.1 -0.4
v 2.6 0.1 -0.5
v 2.8 0 -0.9
v 2.8 0 -1
v 2.8 0.1 -0.9
v 2.8 0.1 -1
v 2.9 0 -0.4
v 2.9 0 -0.5
v 2.9 0 -0.9
v 2.9 0.1 -0.4
v 2.9 0.1 -0.5
v 2.9 0.1 -0.6
v 2.9 0.1 -0.8
v 2.9 0.5 -0.5
v 2.9 0.5 -0.6
v 2.9 0.5 -0.8
v 2.9 0.5 -0.9
v 3.4 0 -0.4
v 3.4 0 -0.5
v 3.4 0.1 -0.4
v 3.4 0.1 -0.5
v 3.6 0 -0.9
v 3.6 0 -1
v 3.6 0.1 -0.9
v 3.6 0.1 -1
v 3.7 0 -0.4
v 3.7 0 -0.5
v 3.7 0 -0.9
v 3.7 0.1 -0.4
v 3.7 0.1 -0.5
v 3.7 0.1 -0.6
v 3.7 0.1 -0.8
v 3.7 0.5 -0.5
v 3.7 0.5 -0.6
v 3.7 0.5 -0.8
v 3.7 0.5 -0.9
v 2.5 0 -0.4
v 2.5 0.1 -0.4
v 2.6 0 -0.4
v 2.6 0.1 -0.4
v 2.8 0 -0.4
v 2.8 0.1 -0.4
v 2.9 0 -0.4
v 2.9 0.1 -0.4
v 3.3 0 -0.4
v 3.3 0.1 -0.4
v 3.4 0 -0.4
v 3.4 0.1 -0.4
v 3.6 0 -0.4
v 3.6 0.1 -0.4
v 3.7 0 -0.4
v 3.7 0.1 -0.4
v 2.5 0.1 -0.5
v 2.5 0.5 -0.5
v 2.6 0 -0.5
v 2.6 0.1 -0.5
v 2.6 0.5 -0.5
v 2.8 0 -0.5
v 2.8 0.1 -0.5
v 2.8 0.5 -0.5
v 2.9 0.1 -0.5
v 2.9 0.5 -0.5
v 3.3 0.1 -0.5
v 3.3 0.5 -0.5
v 3.4 0 -0.5
v 3.4 0.1 -0.5
v 3.4 0.5 -0.5
v 3.6 0 -0.5
v 3.6 0.1 -0.5
v 3.6 0.5 -0.5
v 3.7 0.1 -0.5
v 3.7 0.5 -0.5
v 2.5 0 -0.9
v 2.5 0.5 -0.9
v 2.6 0 -0.9
v 2.6 0.1 -0.9
v 2.6 0.5 -0.9
v 2.8 0 -0.9
v 2.8 0.1 -0.9
v 2.8 0.5 -0.9
v 2.9 0 -0.9
v 2.9 0.5 -0.9
v 3.3 0 -0.9
v 3.3 0.5 -0.9
v 3.4 0 -0.9
v 3.4 0.1 -0.9
v 3.4 0.5 -0.9
v 3.6 0 -0.9
v 3.6 0.1 -0.9
v 3.6 0.5 -0.9
v 3.7 0 -0.9
v 3.7 0.5 -0.9
v 2.6 0 -1
v 2.6 0.1 -1
v 2.8 0 -1
v 2.8 0.1 -1
v 3.4 0 -1
v 3.4 0.1 -1
v 3.6 0 -1
v 3.6 0.1 -1
v 2.5 0 -0.4
v 2.6 0 -0.4
v 2.8 0 -0.4
v 2.9 0 -0.4
v 3.3 0 -0.4
v 3.4 0 -0.4
v 3.6 0 -0.4
v 3.7 0 -0.4
v 2.5 0 -0.5
v 2.6 0 -0.5
v 2.8 0 -0.5
v 2.9 0 -0.5
v 3.3 0 -0.5
v 3.4 0 -0.5
v 3.6 0 -0.5
v 3.7 0 -0.5
v 2.6 0 -0.6
v 2.8 0 -0.6
v 3.4 0 -0.6
v 3.6 0 -0.6
v 2.6 0 -0.8
v 2.8 0 -0.8
v 3.4 0 -0.8
v 3.6 0 -0.8
v 2.5 0 -0.9
v 2.6 0 -0.9
v 2.8 0 -0.9
v 2.9 0 -0.9
v 3.3 0 -0.9
v 3.4 0 -0.9
v 3.6 0 -0.9
v 3.7 0 -0.9
v 2.6 0 -1
v 2.8 0 -1
v 3.4 0 -1
v 3.6 0 -1
v 2.5 0.1 -0.4
v 2.6 0.1 -0.4
v 2.8 0.1 -0.4
v 2.9 0.1 -0.4
v 3.3 0.1 -0.4
v 3.4 0.1 -0.4
v 3.6 0.1 -0.4
v 3.7 0.1 -0.4
v 2.5 0.1 -0.5
v 2.6 0.1 -0.5
v 2.8 0.1 -0.5
v 2.9 0.1 -0.5
v 3.3 0.1 -0.5
v 3.4 0.1 -0.5
v 3.6 0.1 -0.5
v 3.7 0.1 -0.5
v 2.6 0.1 -0.9
v 2.8 0.1 -0.9
v 3.4 0.1 -0.9
v 3.6 0.1 -0.9
v 2.6 0.1 -1
v 2.8 0.1 -1
v 3.4 0.1 -1
v 3.6 0.1 -1
v 2.5 0.5 -0.5
v 2.6 0.5 -0.5
v 2.8 0.5 -0.5
v 2.9 0.5 -0.5
v 3.3 0.5 -0.5
v 3.4 0.5 -0.5
v 3.6 0.5 -0.5
v 3.7 0.5 -0.5
v 2.5 0.5 -0.6
v 2.6 0.5 -0.6
v 2.8 0.5 -0.6
v 2.9 0.5 -0.6
v 3.3 0.5 -0.6
v 3.4 0.5 -0.6
v 3.6 0.5 -0.6
v 3.7 0.5 -0.6
v 2.5 0.5 -0.8
v 2.6 0.5 -0.8
v 2.8 0.5 -0.8
v 2.9 0.5 -0.8
v 3.3 0.5 -0.8
v 3.4 0.5 -0.8
v 3.6 0.5 -0.8
v 3.7 0.5 -0.8
v 2.5 0.5 -0.9
v 2.6 0.5 -0.9
v 2.8 0.5 -0.9
v 2.9 0.5 -0.9
v 3.3 0.5 -0.9
v 3.4 0.5 -0.9
v 3.6 0.5 -0.9
v 3.7 0.5 -0.9

# faces
f 4/3/1 2/3/1 1/3/1
f 5/1/1 3/1/1 2/1/1
f 5/3/1 2/3/1 4/3/1
f 6/1/1 3/1/1 5/1/1
f 7/1/1 3/1/1 6/1/1
f 8/1/1 6/1/1 5/1/1
f 9/2/1 7/2/1 6/2/1
f 9/1/1 6/1/1 8/1/1
f 10/1/1 3/1/1 7/1/1
f 10/2/1 7/2/1 9/2/1
f 11/1/1 3/1/1 10/1/1
f 14/3/1 13/3/1 12/3/1
f 15/3/1 13/3/1 14/3/1
f 18/3/1 17/3/1 16/3/1
f 19/3/1 17/3/1 18/3/1
f 23/3/1 21/3/1 20/3/1
f 24/1/1 22/1/1 21/1/1
f 24/3/1 21/3/1 23/3/1
f 25/1/1 22/1/1 24/1/1
f 26/1/1 22/1/1 25/1/1
f 27/1/1 25/1/1 24/1/1
f 28/2/1 26/2/1 25/2/1
f 28/1/1 25/1/1 27/1/1
f 29/1/1 22/1/1 26/1/1
f 29/2/1 26/2/1 28/2/1
f 30/1/1 22/1/1 29/1/1
f 33/3/1 32/3/1 31/3/1
f 34/3/1 32/3/1 33/3/1
f 37/3/1 36/3/1 35/3/1
f 38/3/1 36/3/1 37/3/1
f 39/3/2 40/3/2 41/3/2
f 41/3/2 40/3/2 42/3/2
f 43/3/2 44/3/2 45/3/2
f 45/3/2 44/3/2 46/3/2
f 47/3/2 48/3/2 50/3/2
f 48/1/2 49/1/2 51/1/2
f 50/3/2 48/3/2 51/3/2
f 51/1/2 49/1/2 52/1/2
f 52/1/2 49/1/2 53/1/2
f 51/1/2 52/1/2 54/1/2
f 52/2/2 53/2/2 55/2/2
f 54/1/2 52/1/2 55/1/2
f 53/1/2 49/1/2 56/1/2
f 55/2/2 53/2/2 56/2/2
f 56/1/2 49/1/2 57/1/2
f 58/3/2 59/3/2 60/3/2
f 60/3/2 59/3/2 61/3/2
f 62/3/2 63/3/2 64/3/2
f 64/3/2 63/3/2 65/3/2
f 66/3/2 67/3/2 69/3/2
f 67/1/2 68/1/2 70/1/2
f 69/3/2 67/3/2 70/3/2
f 70/1/2 68/1/2 71/1/2
f 71/1/2 68/1/2 72/1/2
f 70/1/2 71/1/2 73/1/2
f 71/2/2 72/2/2 74/2/2
f 73/1/2 71/1/2 74/1/2
f 72/1/2 68/1/2 75/1/2
f 74/2/2 72/2/2 75/2/2
f 75/1/2 68/1/2 76/1/2
f 79/3/3 78/3/3 77/3/3
f 80/3/3 78/3/3 79/3/3
f 83/3/3 82/3/3 81/3/3
f 84/3/3 82/3/3 83/3/3
f 87/3/3 86/3/3 85/3/3
f 88/3/3 86/3/3 87/3/3
f 91/3/3 90/3/3 89/3/3
f 92/3/3 90/3/3 91/3/3
f 96/1/3 94/1/3 93/1/3
f 97/1/3 94/1/3 96/1/3
f 98/1/3 96/1/3 95/1/3
f 99/2/3 97/2/3 96/2/3
f 99/1/3 96/1/3 98/1/3
f 100/2/3 97/2/3 99/2/3
f 101/1/3 100/1/3 99/1/3
f 102/1/3 100/1/3 101/1/3
f 106/1/3 104/1/3 103/1/3
f 107/1/3 104/1/3 106/1/3
f 108/1/3 106/1/3 105/1/3
f 109/2/3 107/2/3 106/2/3
f 109/1/3 106/1/3 108/1/3
f 110/2/3 107/2/3 109/2/3
f 111/1/3 110/1/3 109/1/3
f 112/1/3 110/1/3 111/1/3
f 113/1/4 114/1/4 115/1/4
f 115/1/4 114/1/4 116/1/4
f 116/1/4 114/1/4 117/1/4
f 116/2/4 117/2/4 119/2/4
f 119/2/4 117/2/4 120/2/4
f 118/1/4 119/1/4 121/1/4
f 119/1/4 120/1/4 121/1/4
f 121/1/4 120/1/4 122/1/4
f 123/1/4 124/1/4 125/1/4
f 125/1/4 124/1/4 126/1/4
f 126/1/4 124/1/4 127/1/4
f 126/2/4 127/2/4 129/2/4
f 129/2/4 127/2/4 130/2/4
f 128/1/4 129/1/4 131/1/4
f 129/1/4 130/1/4 131/1/4
f 131/1/4 130/1/4 132/1/4
f 133/3/4 134/3/4 135/3/4
f 135/3/4 134/3/4 136/3/4
f 137/3/4 138/3/4 139/3/4
f 139/3/4 138/3/4 140/3/4
f 149/3/5 142/3/5 141/3/5
f 150/3/5 142/3/5 149/3/5
f 151/3/5 144/3/5 143/3/5
f 152/3/5 144/3/5 151/3/5
f 153/3/5 146/3/5 145/3/5
f 154/3/5 146/3/5 153/3/5
f 155/3/5 148/3/5 147/3/5
f 156/3/5 148/3/5 155/3/5
f 157/1/5 150/1/5 149/1/5
f 157/1/5 152/1/5 151/1/5
f 157/1/5 151/1/5 150/1/5
f 158/1/5 152/1/5 157/1/5
f 159/1/5 154/1/5 153/1/5
f 159/1/5 156/1/5 155/1/5
f 159/1/5 155/1/5 154/1/5
f 160/1/5 156/1/5 159/1/5
f 161/2/5 158/2/5 157/2/5
f 161/1/5 157/1/5 149/1/5
f 162/1/5 152/1/5 158/1/5
f 162/2/5 158/2/5 161/2/5
f 163/2/5 160/2/5 159/2/5
f 163/1/5 159/1/5 153/1/5
f 164/1/5 156/1/5 160/1/5
f 164/2/5 160/2/5 163/2/5
f 165/1/5 161/1/5 149/1/5
f 165/1/5 162/1/5 161/1/5
f 166/1/5 162/1/5 165/1/5
f 167/1/5 152/1/5 162/1/5
f 167/1/5 162/1/5 166/1/5
f 168/1/5 152/1/5 167/1/5
f 169/1/5 163/1/5 153/1/5
f 169/1/5 164/1/5 163/1/5
f 170/1/5 164/1/5 169/1/5
f 171/1/5 156/1/5 164/1/5
f 171/1/5 164/1/5 170/1/5
f 172/1/5 156/1/5 171/1/5
f 173/3/5 167/3/5 166/3/5
f 174/3/5 167/3/5 173/3/5
f 175/3/5 171/3/5 170/3/5
f 176/3/5 171/3/5 175/3/5
f 177/3/6 178/3/6 185/3/6
f 185/3/6 178/3/6 186/3/6
f 179/3/6 180/3/6 187/3/6
f 187/3/6 180/3/6 188/3/6
f 181/3/6 182/3/6 189/3/6
f 189/3/6 182/3/6 190/3/6
f 183/3/6 184/3/6 191/3/6
f 191/3/6 184/3/6 192/3/6
f 193/3/6 194/3/6 197/3/6
f 197/3/6 194/3/6 198/3/6
f 195/3/6 196/3/6 199/3/6
f 199/3/6 196/3/6 200/3/6
f 201/1/6 202/1/6 209/1/6
f 202/2/6 203/2/6 210/2/6
f 209/1/6 202/1/6 210/1/6
f 203/1/6 204/1/6 211/1/6
f 210/2/6 203/2/6 211/2/6
f 211/1/6 204/1/6 212/1/6
f 205/1/6 206/1/6 213/1/6
f 206/2/6 207/2/6 214/2/6
f 213/1/6 206/1/6 214/1/6
f 207/1/6 208/1/6 215/1/6
f 214/2/6 207/2/6 215/2/6
f 215/1/6 208/1/6 216/1/6
f 209/2/6 210/2/6 217/2/6
f 211/2/6 212/2/6 217/2/6
f 210/2/6 211/2/6 217/2/6
f 217/2/6 212/2/6 218/2/6
f 218/2/6 212/2/6 219/2/6
f 219/2/6 212/2/6 220/2/6
f 213/2/6 214/2/6 221/2/6
f 215/2/6 216/2/6 221/2/6
f 214/2/6 215/2/6 221/2/6
f 221/2/6 216/2/6 222/2/6
f 222/2/6 216/2/6 223/2/6
f 223/2/6 216/2/6 224/2/6
f 217/1/6 218/1/6 225/1/6
f 218/2/6 219/2/6 226/2/6
f 225/1/6 218/1/6 226/1/6
f 219/1/6 220/1/6 227/1/6
f 226/2/6 219/2/6 227/2/6
f 227/1/6 220/1/6 228/1/6
f 221/1/6 222/1/6 229/1/6
f 222/2/6 223/2/6 230/2/6
f 229/1/6 222/1/6 230/1/6
f 223/1/6 224/1/6 231/1/6
f 230/2/6 223/2/6 231/2/6
f 231/1/6 224/1/6 232/1/6
