# MagicaVoxel @ Ephtracy

# group
o 

# material
mtllib Dragon_large-3.mtl
usemtl palette

# normals
vn -1 0 0
vn 1 0 0
vn 0 0 1
vn 0 0 -1
vn 0 -1 0
vn 0 1 0

# texcoords
vt 0.884766 0.5
vt 0.888672 0.5

# verts
v 1.9 1.9 0.8
v 1.9 1.9 0.6
v 1.9 2.1 0.8
v 1.9 2.1 0.6
v 2.1 2.1 0.8
v 2.1 2.1 0.6
v 2.1 2.3 0.8
v 2.1 2.3 0.6
v 2.1 2.5 0.8
v 2.1 2.5 0.6
v 2.3 1.9 0.8
v 2.3 1.9 0.6
v 2.3 2.1 0.8
v 2.3 2.1 0.6
v 2.3 2.3 0.8
v 2.3 2.3 0.6
v 2.7 2.3 0.8
v 2.7 2.3 0.6
v 2.7 2.5 0.8
v 2.7 2.5 0.6
v 1.9 1.9 0.8
v 1.9 2.1 0.8
v 2.1 1.9 0.8
v 2.1 2.1 0.8
v 2.1 2.3 0.8
v 2.1 2.5 0.8
v 2.3 1.9 0.8
v 2.3 2.1 0.8
v 2.3 2.3 0.8
v 2.3 2.5 0.8
v 2.5 2.3 0.8
v 2.5 2.5 0.8
v 2.7 2.3 0.8
v 2.7 2.5 0.8
v 1.9 1.9 0.6
v 1.9 2.1 0.6
v 2.1 1.9 0.6
v 2.1 2.1 0.6
v 2.1 2.3 0.6
v 2.1 2.5 0.6
v 2.3 1.9 0.6
v 2.3 2.1 0.6
v 2.3 2.3 0.6
v 2.3 2.5 0.6
v 2.5 2.3 0.6
v 2.5 2.5 0.6
v 2.7 2.3 0.6
v 2.7 2.5 0.6
v 1.9 1.9 0.8
v 2.1 1.9 0.8
v 2.3 1.9 0.8
v 1.9 1.9 0.6
v 2.1 1.9 0.6
v 2.3 1.9 0.6
v 2.3 2.3 0.8
v 2.5 2.3 0.8
v 2.7 2.3 0.8
v 2.3 2.3 0.6
v 2.5 2.3 0.6
v 2.7 2.3 0.6
v 1.9 2.1 0.8
v 2.1 2.1 0.8
v 1.9 2.1 0.6
v 2.1 2.1 0.6
v 2.1 2.5 0.8
v 2.3 2.5 0.8
v 2.5 2.5 0.8
v 2.7 2.5 0.8
v 2.1 2.5 0.6
v 2.3 2.5 0.6
v 2.5 2.5 0.6
v 2.7 2.5 0.6

# faces
f 3/2/1 2/2/1 1/2/1
f 4/2/1 2/2/1 3/2/1
f 7/2/1 6/2/1 5/2/1
f 8/2/1 6/2/1 7/2/1
f 9/1/1 8/1/1 7/1/1
f 10/1/1 8/1/1 9/1/1
f 11/1/2 12/1/2 13/1/2
f 13/1/2 12/1/2 14/1/2
f 13/2/2 14/2/2 15/2/2
f 15/2/2 14/2/2 16/2/2
f 17/1/2 18/1/2 19/1/2
f 19/1/2 18/1/2 20/1/2
f 23/2/3 22/2/3 21/2/3
f 24/2/3 22/2/3 23/2/3
f 27/1/3 24/1/3 23/1/3
f 28/2/3 25/2/3 24/2/3
f 28/1/3 24/1/3 27/1/3
f 29/1/3 26/1/3 25/1/3
f 29/2/3 25/2/3 28/2/3
f 30/1/3 26/1/3 29/1/3
f 31/2/3 30/2/3 29/2/3
f 32/2/3 30/2/3 31/2/3
f 33/1/3 32/1/3 31/1/3
f 34/1/3 32/1/3 33/1/3
f 35/2/4 36/2/4 37/2/4
f 37/2/4 36/2/4 38/2/4
f 37/1/4 38/1/4 41/1/4
f 38/2/4 39/2/4 42/2/4
f 41/1/4 38/1/4 42/1/4
f 39/1/4 40/1/4 43/1/4
f 42/2/4 39/2/4 43/2/4
f 43/1/4 40/1/4 44/1/4
f 43/2/4 44/2/4 45/2/4
f 45/2/4 44/2/4 46/2/4
f 45/1/4 46/1/4 47/1/4
f 47/1/4 46/1/4 48/1/4
f 52/2/5 50/2/5 49/2/5
f 53/1/5 51/1/5 50/1/5
f 53/2/5 50/2/5 52/2/5
f 54/1/5 51/1/5 53/1/5
f 58/2/5 56/2/5 55/2/5
f 59/1/5 57/1/5 56/1/5
f 59/2/5 56/2/5 58/2/5
f 60/1/5 57/1/5 59/1/5
f 61/2/6 62/2/6 63/2/6
f 63/2/6 62/2/6 64/2/6
f 65/1/6 66/1/6 69/1/6
f 66/2/6 67/2/6 70/2/6
f 69/1/6 66/1/6 70/1/6
f 67/1/6 68/1/6 71/1/6
f 70/2/6 67/2/6 71/2/6
f 71/1/6 68/1/6 72/1/6
