# MagicaVoxel @ Ephtracy

# group
o 

# material
mtllib Dragon_large-10.mtl
usemtl palette

# normals
vn -1 0 0
vn 1 0 0
vn 0 0 1
vn 0 0 -1
vn 0 -1 0
vn 0 1 0

# texcoords
vt 0.0292969 0.5
vt 0.853516 0.5
vt 0.857422 0.5
vt 0.884766 0.5
vt 0.888672 0.5

# verts
v 2.4 0.5 -0.1
v 2.4 0.5 -1.3
v 2.4 0.6 -0.2
v 2.4 0.6 -1.2
v 2.4 1.8 -0.1
v 2.4 1.8 -0.2
v 2.4 1.8 -1.2
v 2.4 1.8 -1.3
v 2.7 0.4 0
v 2.7 0.4 -0.6
v 2.7 0.5 -0.1
v 2.7 0.5 -0.2
v 2.7 0.5 -0.6
v 2.7 0.6 -0.1
v 2.7 1.4 0
v 2.7 1.4 -0.1
v 2.8 1.4 0
v 2.8 1.4 -0.1
v 2.8 1.5 0
v 2.8 1.5 -0.1
v 3 0.6 -1.3
v 3 0.6 -1.5
v 3 0.7 -1.5
v 3 0.7 -1.6
v 3 0.8 -1.5
v 3 0.8 -1.6
v 3 0.9 -1.3
v 3 0.9 -1.5
v 3 1 -1.3
v 3 1 -1.5
v 3 1.1 -1.5
v 3 1.1 -1.6
v 3 1.2 -1.5
v 3 1.2 -1.6
v 3 1.3 -1.3
v 3 1.3 -1.5
v 3 1.4 -1.3
v 3 1.4 -1.5
v 3 1.5 -1.5
v 3 1.5 -1.6
v 3 1.6 -1.5
v 3 1.6 -1.6
v 3 1.7 -1.3
v 3 1.7 -1.5
v 3.2 0.6 -1.3
v 3.2 0.6 -1.5
v 3.2 0.7 -1.5
v 3.2 0.7 -1.6
v 3.2 0.8 -1.5
v 3.2 0.8 -1.6
v 3.2 0.9 -1.3
v 3.2 0.9 -1.5
v 3.2 1 -1.3
v 3.2 1 -1.5
v 3.2 1.1 -1.5
v 3.2 1.1 -1.6
v 3.2 1.2 -1.5
v 3.2 1.2 -1.6
v 3.2 1.3 -1.3
v 3.2 1.3 -1.5
v 3.2 1.4 -1.3
v 3.2 1.4 -1.5
v 3.2 1.5 -1.5
v 3.2 1.5 -1.6
v 3.2 1.6 -1.5
v 3.2 1.6 -1.6
v 3.2 1.7 -1.3
v 3.2 1.7 -1.5
v 3.4 1.4 0
v 3.4 1.4 -0.1
v 3.4 1.5 0
v 3.4 1.5 -0.1
v 3.5 0.4 0
v 3.5 0.4 -0.6
v 3.5 0.5 -0.1
v 3.5 0.5 -0.2
v 3.5 0.5 -0.6
v 3.5 0.6 -0.1
v 3.5 1.4 0
v 3.5 1.4 -0.1
v 3.8 0.5 -0.1
v 3.8 0.5 -1.3
v 3.8 0.6 -0.2
v 3.8 0.6 -1.2
v 3.8 1.8 -0.1
v 3.8 1.8 -0.2
v 3.8 1.8 -1.2
v 3.8 1.8 -1.3
v 2.7 0.4 0
v 2.7 1.4 0
v 2.8 0.4 0
v 2.8 0.5 0
v 2.8 0.6 0
v 2.8 0.7 0
v 2.8 0.8 0
v 2.8 0.9 0
v 2.8 1 0
v 2.8 1.1 0
v 2.8 1.2 0
v 2.8 1.3 0
v 2.8 1.4 0
v 2.8 1.5 0
v 3.4 0.4 0
v 3.4 0.5 0
v 3.4 0.6 0
v 3.4 0.7 0
v 3.4 0.8 0
v 3.4 0.9 0
v 3.4 1 0
v 3.4 1.1 0
v 3.4 1.2 0
v 3.4 1.3 0
v 3.4 1.4 0
v 3.4 1.5 0
v 3.5 0.4 0
v 3.5 1.4 0
v 2.4 0.5 -0.1
v 2.4 1.8 -0.1
v 2.5 0.6 -0.1
v 2.5 1.8 -0.1
v 2.7 0.5 -0.1
v 2.7 0.6 -0.1
v 2.7 1.4 -0.1
v 2.8 1.4 -0.1
v 2.8 1.5 -0.1
v 3.4 1.4 -0.1
v 3.4 1.5 -0.1
v 3.5 0.5 -0.1
v 3.5 0.6 -0.1
v 3.5 1.4 -0.1
v 3.7 0.6 -0.1
v 3.7 1.8 -0.1
v 3.8 0.5 -0.1
v 3.8 1.8 -0.1
v 2.7 0.4 -0.6
v 2.7 0.5 -0.6
v 3.5 0.4 -0.6
v 3.5 0.5 -0.6
v 2.4 0.5 -1.3
v 2.4 1.8 -1.3
v 2.5 0.6 -1.3
v 2.5 1.8 -1.3
v 3 0.6 -1.3
v 3 0.9 -1.3
v 3 1 -1.3
v 3 1.3 -1.3
v 3 1.4 -1.3
v 3 1.7 -1.3
v 3.2 0.6 -1.3
v 3.2 0.9 -1.3
v 3.2 1 -1.3
v 3.2 1.3 -1.3
v 3.2 1.4 -1.3
v 3.2 1.7 -1.3
v 3.7 0.6 -1.3
v 3.7 1.8 -1.3
v 3.8 0.5 -1.3
v 3.8 1.8 -1.3
v 3 0.6 -1.5
v 3 0.7 -1.5
v 3 0.8 -1.5
v 3 0.9 -1.5
v 3 1 -1.5
v 3 1.1 -1.5
v 3 1.2 -1.5
v 3 1.3 -1.5
v 3 1.4 -1.5
v 3 1.5 -1.5
v 3 1.6 -1.5
v 3 1.7 -1.5
v 3.2 0.6 -1.5
v 3.2 0.7 -1.5
v 3.2 0.8 -1.5
v 3.2 0.9 -1.5
v 3.2 1 -1.5
v 3.2 1.1 -1.5
v 3.2 1.2 -1.5
v 3.2 1.3 -1.5
v 3.2 1.4 -1.5
v 3.2 1.5 -1.5
v 3.2 1.6 -1.5
v 3.2 1.7 -1.5
v 3 0.7 -1.6
v 3 0.8 -1.6
v 3 1.1 -1.6
v 3 1.2 -1.6
v 3 1.5 -1.6
v 3 1.6 -1.6
v 3.2 0.7 -1.6
v 3.2 0.8 -1.6
v 3.2 1.1 -1.6
v 3.2 1.2 -1.6
v 3.2 1.5 -1.6
v 3.2 1.6 -1.6
v 2.7 0.4 0
v 2.8 0.4 0
v 3.4 0.4 0
v 3.5 0.4 0
v 2.8 0.4 -0.1
v 3.4 0.4 -0.1
v 2.8 0.4 -0.2
v 3.4 0.4 -0.2
v 2.8 0.4 -0.3
v 3.4 0.4 -0.3
v 2.8 0.4 -0.4
v 3.4 0.4 -0.4
v 2.8 0.4 -0.5
v 3.4 0.4 -0.5
v 2.7 0.4 -0.6
v 3.5 0.4 -0.6
v 2.4 0.5 -0.1
v 2.7 0.5 -0.1
v 3.5 0.5 -0.1
v 3.8 0.5 -0.1
v 2.5 0.5 -0.2
v 2.7 0.5 -0.2
v 3.5 0.5 -0.2
v 3.7 0.5 -0.2
v 2.7 0.5 -0.6
v 3.5 0.5 -0.6
v 2.5 0.5 -1.2
v 3.7 0.5 -1.2
v 2.4 0.5 -1.3
v 3.8 0.5 -1.3
v 3 0.6 -1.3
v 3.2 0.6 -1.3
v 3 0.6 -1.5
v 3.2 0.6 -1.5
v 3 0.7 -1.5
v 3.2 0.7 -1.5
v 3 0.7 -1.6
v 3.2 0.7 -1.6
v 3 1 -1.3
v 3.2 1 -1.3
v 3 1 -1.5
v 3.2 1 -1.5
v 3 1.1 -1.5
v 3.2 1.1 -1.5
v 3 1.1 -1.6
v 3.2 1.1 -1.6
v 3 1.4 -1.3
v 3.2 1.4 -1.3
v 3 1.4 -1.5
v 3.2 1.4 -1.5
v 3 1.5 -1.5
v 3.2 1.5 -1.5
v 3 1.5 -1.6
v 3.2 1.5 -1.6
v 3 0.8 -1.5
v 3.2 0.8 -1.5
v 3 0.8 -1.6
v 3.2 0.8 -1.6
v 3 0.9 -1.3
v 3.2 0.9 -1.3
v 3 0.9 -1.5
v 3.2 0.9 -1.5
v 3 1.2 -1.5
v 3.2 1.2 -1.5
v 3 1.2 -1.6
v 3.2 1.2 -1.6
v 3 1.3 -1.3
v 3.2 1.3 -1.3
v 3 1.3 -1.5
v 3.2 1.3 -1.5
v 2.7 1.4 0
v 2.8 1.4 0
v 3.4 1.4 0
v 3.5 1.4 0
v 2.7 1.4 -0.1
v 2.8 1.4 -0.1
v 3.4 1.4 -0.1
v 3.5 1.4 -0.1
v 2.8 1.5 0
v 3.4 1.5 0
v 2.8 1.5 -0.1
v 3.4 1.5 -0.1
v 3 1.6 -1.5
v 3.2 1.6 -1.5
v 3 1.6 -1.6
v 3.2 1.6 -1.6
v 3 1.7 -1.3
v 3.2 1.7 -1.3
v 3 1.7 -1.5
v 3.2 1.7 -1.5
v 2.4 1.8 -0.1
v 2.5 1.8 -0.1
v 3.7 1.8 -0.1
v 3.8 1.8 -0.1
v 2.4 1.8 -0.2
v 2.5 1.8 -0.2
v 3.7 1.8 -0.2
v 3.8 1.8 -0.2
v 2.4 1.8 -1.2
v 2.5 1.8 -1.2
v 3.7 1.8 -1.2
v 3.8 1.8 -1.2
v 2.4 1.8 -1.3
v 2.5 1.8 -1.3
v 3.7 1.8 -1.3
v 3.8 1.8 -1.3

# faces
f 3/2/1 2/2/1 1/2/1
f 4/2/1 2/2/1 3/2/1
f 5/2/1 3/2/1 1/2/1
f 6/3/1 4/3/1 3/3/1
f 6/2/1 3/2/1 5/2/1
f 7/2/1 2/2/1 4/2/1
f 7/3/1 4/3/1 6/3/1
f 8/2/1 2/2/1 7/2/1
f 11/4/1 10/4/1 9/4/1
f 12/4/1 10/4/1 11/4/1
f 13/4/1 10/4/1 12/4/1
f 14/4/1 11/4/1 9/4/1
f 15/4/1 14/4/1 9/4/1
f 16/4/1 14/4/1 15/4/1
f 19/4/1 18/4/1 17/4/1
f 20/4/1 18/4/1 19/4/1
f 23/4/1 22/4/1 21/4/1
f 25/4/1 23/4/1 21/4/1
f 25/4/1 24/4/1 23/4/1
f 26/4/1 24/4/1 25/4/1
f 27/4/1 25/4/1 21/4/1
f 28/4/1 25/4/1 27/4/1
f 31/4/1 30/4/1 29/4/1
f 33/4/1 31/4/1 29/4/1
f 33/4/1 32/4/1 31/4/1
f 34/4/1 32/4/1 33/4/1
f 35/4/1 33/4/1 29/4/1
f 36/4/1 33/4/1 35/4/1
f 39/4/1 38/4/1 37/4/1
f 41/4/1 39/4/1 37/4/1
f 41/4/1 40/4/1 39/4/1
f 42/4/1 40/4/1 41/4/1
f 43/4/1 41/4/1 37/4/1
f 44/4/1 41/4/1 43/4/1
f 45/4/2 46/4/2 47/4/2
f 45/4/2 47/4/2 49/4/2
f 47/4/2 48/4/2 49/4/2
f 49/4/2 48/4/2 50/4/2
f 45/4/2 49/4/2 51/4/2
f 51/4/2 49/4/2 52/4/2
f 53/4/2 54/4/2 55/4/2
f 53/4/2 55/4/2 57/4/2
f 55/4/2 56/4/2 57/4/2
f 57/4/2 56/4/2 58/4/2
f 53/4/2 57/4/2 59/4/2
f 59/4/2 57/4/2 60/4/2
f 61/4/2 62/4/2 63/4/2
f 61/4/2 63/4/2 65/4/2
f 63/4/2 64/4/2 65/4/2
f 65/4/2 64/4/2 66/4/2
f 61/4/2 65/4/2 67/4/2
f 67/4/2 65/4/2 68/4/2
f 69/4/2 70/4/2 71/4/2
f 71/4/2 70/4/2 72/4/2
f 73/4/2 74/4/2 75/4/2
f 75/4/2 74/4/2 76/4/2
f 76/4/2 74/4/2 77/4/2
f 73/4/2 75/4/2 78/4/2
f 73/4/2 78/4/2 79/4/2
f 79/4/2 78/4/2 80/4/2
f 81/2/2 82/2/2 83/2/2
f 83/2/2 82/2/2 84/2/2
f 81/2/2 83/2/2 85/2/2
f 83/3/2 84/3/2 86/3/2
f 85/2/2 83/2/2 86/2/2
f 84/2/2 82/2/2 87/2/2
f 86/3/2 84/3/2 87/3/2
f 87/2/2 82/2/2 88/2/2
f 91/4/3 90/4/3 89/4/3
f 92/4/3 90/4/3 91/4/3
f 93/4/3 90/4/3 92/4/3
f 94/4/3 90/4/3 93/4/3
f 95/4/3 90/4/3 94/4/3
f 96/4/3 90/4/3 95/4/3
f 97/4/3 90/4/3 96/4/3
f 98/4/3 90/4/3 97/4/3
f 99/4/3 90/4/3 98/4/3
f 100/4/3 90/4/3 99/4/3
f 101/4/3 90/4/3 100/4/3
f 103/5/3 92/5/3 91/5/3
f 104/1/3 93/1/3 92/1/3
f 104/5/3 92/5/3 103/5/3
f 105/5/3 94/5/3 93/5/3
f 105/1/3 93/1/3 104/1/3
f 106/1/3 95/1/3 94/1/3
f 106/5/3 94/5/3 105/5/3
f 107/5/3 96/5/3 95/5/3
f 107/1/3 95/1/3 106/1/3
f 108/1/3 97/1/3 96/1/3
f 108/5/3 96/5/3 107/5/3
f 109/5/3 98/5/3 97/5/3
f 109/1/3 97/1/3 108/1/3
f 110/1/3 99/1/3 98/1/3
f 110/5/3 98/5/3 109/5/3
f 111/5/3 100/5/3 99/5/3
f 111/1/3 99/1/3 110/1/3
f 112/1/3 101/1/3 100/1/3
f 112/5/3 100/5/3 111/5/3
f 113/4/3 102/4/3 101/4/3
f 113/1/3 101/1/3 112/1/3
f 114/4/3 102/4/3 113/4/3
f 115/4/3 112/4/3 111/4/3
f 115/4/3 104/4/3 103/4/3
f 115/4/3 113/4/3 112/4/3
f 115/4/3 111/4/3 110/4/3
f 115/4/3 110/4/3 109/4/3
f 115/4/3 109/4/3 108/4/3
f 115/4/3 108/4/3 107/4/3
f 115/4/3 107/4/3 106/4/3
f 115/4/3 106/4/3 105/4/3
f 115/4/3 105/4/3 104/4/3
f 116/4/3 113/4/3 115/4/3
f 119/2/3 118/2/3 117/2/3
f 120/2/3 118/2/3 119/2/3
f 121/2/3 119/2/3 117/2/3
f 122/3/3 120/3/3 119/3/3
f 122/2/3 119/2/3 121/2/3
f 123/3/3 120/3/3 122/3/3
f 124/3/3 120/3/3 123/3/3
f 125/3/3 120/3/3 124/3/3
f 127/3/3 120/3/3 125/3/3
f 130/3/3 127/3/3 126/3/3
f 131/2/3 129/2/3 128/2/3
f 131/3/3 130/3/3 129/3/3
f 132/3/3 120/3/3 127/3/3
f 132/3/3 130/3/3 131/3/3
f 132/3/3 127/3/3 130/3/3
f 133/2/3 131/2/3 128/2/3
f 133/2/3 132/2/3 131/2/3
f 134/2/3 132/2/3 133/2/3
f 135/4/4 136/4/4 137/4/4
f 137/4/4 136/4/4 138/4/4
f 139/2/4 140/2/4 141/2/4
f 141/2/4 140/2/4 142/2/4
f 139/2/4 141/2/4 143/2/4
f 141/3/4 142/3/4 143/3/4
f 143/3/4 142/3/4 144/3/4
f 144/3/4 142/3/4 145/3/4
f 145/3/4 142/3/4 146/3/4
f 146/3/4 142/3/4 147/3/4
f 147/3/4 142/3/4 148/3/4
f 139/2/4 143/2/4 149/2/4
f 144/3/4 145/3/4 150/3/4
f 150/3/4 145/3/4 151/3/4
f 146/3/4 147/3/4 152/3/4
f 152/3/4 147/3/4 153/3/4
f 148/3/4 142/3/4 154/3/4
f 152/3/4 153/3/4 155/3/4
f 153/3/4 154/3/4 155/3/4
f 150/3/4 151/3/4 155/3/4
f 139/2/4 149/2/4 155/2/4
f 151/3/4 152/3/4 155/3/4
f 149/3/4 150/3/4 155/3/4
f 154/3/4 142/3/4 156/3/4
f 155/3/4 154/3/4 156/3/4
f 139/2/4 155/2/4 157/2/4
f 155/2/4 156/2/4 157/2/4
f 157/2/4 156/2/4 158/2/4
f 159/4/4 160/4/4 171/4/4
f 171/4/4 160/4/4 172/4/4
f 161/4/4 162/4/4 173/4/4
f 173/4/4 162/4/4 174/4/4
f 163/4/4 164/4/4 175/4/4
f 175/4/4 164/4/4 176/4/4
f 165/4/4 166/4/4 177/4/4
f 177/4/4 166/4/4 178/4/4
f 167/4/4 168/4/4 179/4/4
f 179/4/4 168/4/4 180/4/4
f 169/4/4 170/4/4 181/4/4
f 181/4/4 170/4/4 182/4/4
f 183/4/4 184/4/4 189/4/4
f 189/4/4 184/4/4 190/4/4
f 185/4/4 186/4/4 191/4/4
f 191/4/4 186/4/4 192/4/4
f 187/4/4 188/4/4 193/4/4
f 193/4/4 188/4/4 194/4/4
f 199/4/5 196/4/5 195/4/5
f 199/5/5 197/5/5 196/5/5
f 200/4/5 198/4/5 197/4/5
f 200/5/5 197/5/5 199/5/5
f 201/4/5 199/4/5 195/4/5
f 201/1/5 200/1/5 199/1/5
f 202/4/5 198/4/5 200/4/5
f 202/1/5 200/1/5 201/1/5
f 203/4/5 201/4/5 195/4/5
f 203/5/5 202/5/5 201/5/5
f 204/4/5 198/4/5 202/4/5
f 204/5/5 202/5/5 203/5/5
f 205/4/5 203/4/5 195/4/5
f 205/1/5 204/1/5 203/1/5
f 206/4/5 198/4/5 204/4/5
f 206/1/5 204/1/5 205/1/5
f 207/4/5 205/4/5 195/4/5
f 207/5/5 206/5/5 205/5/5
f 208/4/5 198/4/5 206/4/5
f 208/5/5 206/5/5 207/5/5
f 209/4/5 207/4/5 195/4/5
f 209/4/5 208/4/5 207/4/5
f 210/4/5 198/4/5 208/4/5
f 210/4/5 208/4/5 209/4/5
f 215/2/5 212/2/5 211/2/5
f 216/2/5 212/2/5 215/2/5
f 217/2/5 214/2/5 213/2/5
f 218/2/5 214/2/5 217/2/5
f 219/3/5 216/3/5 215/3/5
f 220/3/5 218/3/5 217/3/5
f 221/2/5 215/2/5 211/2/5
f 221/3/5 220/3/5 219/3/5
f 221/3/5 219/3/5 215/3/5
f 222/2/5 214/2/5 218/2/5
f 222/3/5 220/3/5 221/3/5
f 222/3/5 218/3/5 220/3/5
f 223/2/5 221/2/5 211/2/5
f 223/2/5 222/2/5 221/2/5
f 224/2/5 214/2/5 222/2/5
f 224/2/5 222/2/5 223/2/5
f 227/4/5 226/4/5 225/4/5
f 228/4/5 226/4/5 227/4/5
f 231/4/5 230/4/5 229/4/5
f 232/4/5 230/4/5 231/4/5
f 235/4/5 234/4/5 233/4/5
f 236/4/5 234/4/5 235/4/5
f 239/4/5 238/4/5 237/4/5
f 240/4/5 238/4/5 239/4/5
f 243/4/5 242/4/5 241/4/5
f 244/4/5 242/4/5 243/4/5
f 247/4/5 246/4/5 245/4/5
f 248/4/5 246/4/5 247/4/5
f 249/4/6 250/4/6 251/4/6
f 251/4/6 250/4/6 252/4/6
f 253/4/6 254/4/6 255/4/6
f 255/4/6 254/4/6 256/4/6
f 257/4/6 258/4/6 259/4/6
f 259/4/6 258/4/6 260/4/6
f 261/4/6 262/4/6 263/4/6
f 263/4/6 262/4/6 264/4/6
f 265/4/6 266/4/6 269/4/6
f 269/4/6 266/4/6 270/4/6
f 267/4/6 268/4/6 271/4/6
f 271/4/6 268/4/6 272/4/6
f 273/4/6 274/4/6 275/4/6
f 275/4/6 274/4/6 276/4/6
f 277/4/6 278/4/6 279/4/6
f 279/4/6 278/4/6 280/4/6
f 281/4/6 282/4/6 283/4/6
f 283/4/6 282/4/6 284/4/6
f 285/2/6 286/2/6 289/2/6
f 286/3/6 287/3/6 290/3/6
f 289/2/6 286/2/6 290/2/6
f 287/2/6 288/2/6 291/2/6
f 290/3/6 287/3/6 291/3/6
f 291/2/6 288/2/6 292/2/6
f 289/3/6 290/3/6 293/3/6
f 290/3/6 291/3/6 293/3/6
f 291/3/6 292/3/6 293/3/6
f 293/3/6 292/3/6 294/3/6
f 294/3/6 292/3/6 295/3/6
f 295/3/6 292/3/6 296/3/6
f 293/2/6 294/2/6 297/2/6
f 294/3/6 295/3/6 298/3/6
f 297/2/6 294/2/6 298/2/6
f 295/2/6 296/2/6 299/2/6
f 298/3/6 295/3/6 299/3/6
f 299/2/6 296/2/6 300/2/6
