# MagicaVoxel @ Ephtracy

# group
o 

# material
mtllib Large_greenguy-6.mtl
usemtl palette

# normals
vn -1 0 0
vn 1 0 0
vn 0 0 1
vn 0 0 -1
vn 0 -1 0
vn 0 1 0

# texcoords
vt 0.830078 0.5
vt 0.861328 0.5
vt 0.888672 0.5
vt 0.892578 0.5
vt 0.923828 0.5

# verts
v 2.2 0.8 0.5
v 2.2 0.8 -0.3
v 2.2 0.9 0.4
v 2.2 0.9 -0.2
v 2.2 1 0.7
v 2.2 1 0.5
v 2.2 1 -0.3
v 2.2 1 -0.5
v 2.2 1.1 0.6
v 2.2 1.1 0.4
v 2.2 1.1 -0.2
v 2.2 1.1 -0.4
v 2.2 1.4 0.7
v 2.2 1.4 0.6
v 2.2 1.4 -0.4
v 2.2 1.4 -0.5
v 2.2 1.5 0.7
v 2.2 1.5 -0.5
v 2.3 1.5 0.6
v 2.3 1.5 0.5
v 2.3 1.5 0.3
v 2.3 1.5 0.2
v 2.3 1.5 0
v 2.3 1.5 -0.1
v 2.3 1.5 -0.3
v 2.3 1.5 -0.4
v 2.3 1.6 0.6
v 2.3 1.6 0.5
v 2.3 1.6 0.3
v 2.3 1.6 0.2
v 2.3 1.6 0
v 2.3 1.6 -0.1
v 2.3 1.6 -0.3
v 2.3 1.6 -0.4
v 2.4 0.8 0.7
v 2.4 0.8 0.5
v 2.4 0.8 -0.3
v 2.4 0.8 -0.5
v 2.4 0.9 0.6
v 2.4 0.9 0.5
v 2.4 0.9 -0.3
v 2.4 0.9 -0.4
v 2.4 1 0.7
v 2.4 1 0.6
v 2.4 1 0.5
v 2.4 1 -0.3
v 2.4 1 -0.4
v 2.4 1 -0.5
v 2.6 1.5 0.6
v 2.6 1.5 0.5
v 2.6 1.5 -0.3
v 2.6 1.5 -0.4
v 2.6 1.6 0.6
v 2.6 1.6 0.5
v 2.6 1.6 -0.3
v 2.6 1.6 -0.4
v 2.9 1.5 0.6
v 2.9 1.5 0.5
v 2.9 1.5 -0.3
v 2.9 1.5 -0.4
v 2.9 1.6 0.6
v 2.9 1.6 0.5
v 2.9 1.6 -0.3
v 2.9 1.6 -0.4
v 3.2 1.5 0.6
v 3.2 1.5 0.5
v 3.2 1.5 -0.3
v 3.2 1.5 -0.4
v 3.2 1.6 0.6
v 3.2 1.6 0.5
v 3.2 1.6 -0.3
v 3.2 1.6 -0.4
v 3.5 1.5 0.6
v 3.5 1.5 0.5
v 3.5 1.5 -0.3
v 3.5 1.5 -0.4
v 3.5 1.6 0.6
v 3.5 1.6 0.5
v 3.5 1.6 -0.3
v 3.5 1.6 -0.4
v 3.8 1.5 0.6
v 3.8 1.5 0.5
v 3.8 1.5 0.3
v 3.8 1.5 0.2
v 3.8 1.5 0
v 3.8 1.5 -0.1
v 3.8 1.5 -0.3
v 3.8 1.5 -0.4
v 3.8 1.6 0.6
v 3.8 1.6 0.5
v 3.8 1.6 0.3
v 3.8 1.6 0.2
v 3.8 1.6 0
v 3.8 1.6 -0.1
v 3.8 1.6 -0.3
v 3.8 1.6 -0.4
v 2.4 1.5 0.6
v 2.4 1.5 0.5
v 2.4 1.5 0.3
v 2.4 1.5 0.2
v 2.4 1.5 0
v 2.4 1.5 -0.1
v 2.4 1.5 -0.3
v 2.4 1.5 -0.4
v 2.4 1.6 0.6
v 2.4 1.6 0.5
v 2.4 1.6 0.3
v 2.4 1.6 0.2
v 2.4 1.6 0
v 2.4 1.6 -0.1
v 2.4 1.6 -0.3
v 2.4 1.6 -0.4
v 2.7 1.5 0.6
v 2.7 1.5 0.5
v 2.7 1.5 -0.3
v 2.7 1.5 -0.4
v 2.7 1.6 0.6
v 2.7 1.6 0.5
v 2.7 1.6 -0.3
v 2.7 1.6 -0.4
v 3 1.5 0.6
v 3 1.5 0.5
v 3 1.5 -0.3
v 3 1.5 -0.4
v 3 1.6 0.6
v 3 1.6 0.5
v 3 1.6 -0.3
v 3 1.6 -0.4
v 3.3 1.5 0.6
v 3.3 1.5 0.5
v 3.3 1.5 -0.3
v 3.3 1.5 -0.4
v 3.3 1.6 0.6
v 3.3 1.6 0.5
v 3.3 1.6 -0.3
v 3.3 1.6 -0.4
v 3.6 1.5 0.6
v 3.6 1.5 0.5
v 3.6 1.5 -0.3
v 3.6 1.5 -0.4
v 3.6 1.6 0.6
v 3.6 1.6 0.5
v 3.6 1.6 -0.3
v 3.6 1.6 -0.4
v 3.8 0.8 0.7
v 3.8 0.8 0.5
v 3.8 0.8 -0.3
v 3.8 0.8 -0.5
v 3.8 0.9 0.6
v 3.8 0.9 0.5
v 3.8 0.9 -0.3
v 3.8 0.9 -0.4
v 3.8 1 0.7
v 3.8 1 0.6
v 3.8 1 0.5
v 3.8 1 -0.3
v 3.8 1 -0.4
v 3.8 1 -0.5
v 3.9 1.5 0.6
v 3.9 1.5 0.5
v 3.9 1.5 0.3
v 3.9 1.5 0.2
v 3.9 1.5 0
v 3.9 1.5 -0.1
v 3.9 1.5 -0.3
v 3.9 1.5 -0.4
v 3.9 1.6 0.6
v 3.9 1.6 0.5
v 3.9 1.6 0.3
v 3.9 1.6 0.2
v 3.9 1.6 0
v 3.9 1.6 -0.1
v 3.9 1.6 -0.3
v 3.9 1.6 -0.4
v 4 0.8 0.5
v 4 0.8 -0.3
v 4 0.9 0.4
v 4 0.9 -0.2
v 4 1 0.7
v 4 1 0.5
v 4 1 -0.3
v 4 1 -0.5
v 4 1.1 0.6
v 4 1.1 0.4
v 4 1.1 -0.2
v 4 1.1 -0.4
v 4 1.4 0.7
v 4 1.4 0.6
v 4 1.4 -0.4
v 4 1.4 -0.5
v 4 1.5 0.7
v 4 1.5 -0.5
v 2.2 1 0.7
v 2.2 1.4 0.7
v 2.2 1.5 0.7
v 2.3 1.1 0.7
v 2.3 1.4 0.7
v 2.4 0.8 0.7
v 2.4 1 0.7
v 2.5 0.9 0.7
v 2.5 1.1 0.7
v 3.7 0.9 0.7
v 3.7 1.1 0.7
v 3.8 0.8 0.7
v 3.8 1 0.7
v 3.9 1.1 0.7
v 3.9 1.4 0.7
v 4 1 0.7
v 4 1.4 0.7
v 4 1.5 0.7
v 2.3 1.5 0.6
v 2.3 1.6 0.6
v 2.4 1.5 0.6
v 2.4 1.6 0.6
v 2.6 1.5 0.6
v 2.6 1.6 0.6
v 2.7 1.5 0.6
v 2.7 1.6 0.6
v 2.9 1.5 0.6
v 2.9 1.6 0.6
v 3 1.5 0.6
v 3 1.6 0.6
v 3.2 1.5 0.6
v 3.2 1.6 0.6
v 3.3 1.5 0.6
v 3.3 1.6 0.6
v 3.5 1.5 0.6
v 3.5 1.6 0.6
v 3.6 1.5 0.6
v 3.6 1.6 0.6
v 3.8 1.5 0.6
v 3.8 1.6 0.6
v 3.9 1.5 0.6
v 3.9 1.6 0.6
v 2.2 0.8 0.5
v 2.2 1 0.5
v 2.3 0.9 0.5
v 2.3 1 0.5
v 2.4 0.8 0.5
v 2.4 0.9 0.5
v 2.4 1 0.5
v 3.8 0.8 0.5
v 3.8 0.9 0.5
v 3.8 1 0.5
v 3.9 0.9 0.5
v 3.9 1 0.5
v 4 0.8 0.5
v 4 1 0.5
v 2.3 1.5 0.3
v 2.3 1.6 0.3
v 2.4 1.5 0.3
v 2.4 1.6 0.3
v 3.8 1.5 0.3
v 3.8 1.6 0.3
v 3.9 1.5 0.3
v 3.9 1.6 0.3
v 2.3 1.5 0
v 2.3 1.6 0
v 2.4 1.5 0
v 2.4 1.6 0
v 3.8 1.5 0
v 3.8 1.6 0
v 3.9 1.5 0
v 3.9 1.6 0
v 2.3 1.5 -0.3
v 2.3 1.6 -0.3
v 2.4 1.5 -0.3
v 2.4 1.6 -0.3
v 2.6 1.5 -0.3
v 2.6 1.6 -0.3
v 2.7 1.5 -0.3
v 2.7 1.6 -0.3
v 2.9 1.5 -0.3
v 2.9 1.6 -0.3
v 3 1.5 -0.3
v 3 1.6 -0.3
v 3.2 1.5 -0.3
v 3.2 1.6 -0.3
v 3.3 1.5 -0.3
v 3.3 1.6 -0.3
v 3.5 1.5 -0.3
v 3.5 1.6 -0.3
v 3.6 1.5 -0.3
v 3.6 1.6 -0.3
v 3.8 1.5 -0.3
v 3.8 1.6 -0.3
v 3.9 1.5 -0.3
v 3.9 1.6 -0.3
v 2.3 1.5 0.5
v 2.3 1.6 0.5
v 2.4 1.5 0.5
v 2.4 1.6 0.5
v 2.6 1.5 0.5
v 2.6 1.6 0.5
v 2.7 1.5 0.5
v 2.7 1.6 0.5
v 2.9 1.5 0.5
v 2.9 1.6 0.5
v 3 1.5 0.5
v 3 1.6 0.5
v 3.2 1.5 0.5
v 3.2 1.6 0.5
v 3.3 1.5 0.5
v 3.3 1.6 0.5
v 3.5 1.5 0.5
v 3.5 1.6 0.5
v 3.6 1.5 0.5
v 3.6 1.6 0.5
v 3.8 1.5 0.5
v 3.8 1.6 0.5
v 3.9 1.5 0.5
v 3.9 1.6 0.5
v 2.3 1.5 0.2
v 2.3 1.6 0.2
v 2.4 1.5 0.2
v 2.4 1.6 0.2
v 3.8 1.5 0.2
v 3.8 1.6 0.2
v 3.9 1.5 0.2
v 3.9 1.6 0.2
v 2.3 1.5 -0.1
v 2.3 1.6 -0.1
v 2.4 1.5 -0.1
v 2.4 1.6 -0.1
v 3.8 1.5 -0.1
v 3.8 1.6 -0.1
v 3.9 1.5 -0.1
v 3.9 1.6 -0.1
v 2.2 0.8 -0.3
v 2.2 1 -0.3
v 2.3 0.9 -0.3
v 2.3 1 -0.3
v 2.4 0.8 -0.3
v 2.4 0.9 -0.3
v 2.4 1 -0.3
v 3.8 0.8 -0.3
v 3.8 0.9 -0.3
v 3.8 1 -0.3
v 3.9 0.9 -0.3
v 3.9 1 -0.3
v 4 0.8 -0.3
v 4 1 -0.3
v 2.3 1.5 -0.4
v 2.3 1.6 -0.4
v 2.4 1.5 -0.4
v 2.4 1.6 -0.4
v 2.6 1.5 -0.4
v 2.6 1.6 -0.4
v 2.7 1.5 -0.4
v 2.7 1.6 -0.4
v 2.9 1.5 -0.4
v 2.9 1.6 -0.4
v 3 1.5 -0.4
v 3 1.6 -0.4
v 3.2 1.5 -0.4
v 3.2 1.6 -0.4
v 3.3 1.5 -0.4
v 3.3 1.6 -0.4
v 3.5 1.5 -0.4
v 3.5 1.6 -0.4
v 3.6 1.5 -0.4
v 3.6 1.6 -0.4
v 3.8 1.5 -0.4
v 3.8 1.6 -0.4
v 3.9 1.5 -0.4
v 3.9 1.6 -0.4
v 2.2 1 -0.5
v 2.2 1.4 -0.5
v 2.2 1.5 -0.5
v 2.3 1.1 -0.5
v 2.3 1.4 -0.5
v 2.4 0.8 -0.5
v 2.4 1 -0.5
v 2.5 0.9 -0.5
v 2.5 1.1 -0.5
v 3.7 0.9 -0.5
v 3.7 1.1 -0.5
v 3.8 0.8 -0.5
v 3.8 1 -0.5
v 3.9 1.1 -0.5
v 3.9 1.4 -0.5
v 4 1 -0.5
v 4 1.4 -0.5
v 4 1.5 -0.5
v 2.4 0.8 0.7
v 3.8 0.8 0.7
v 2.5 0.8 0.6
v 3.7 0.8 0.6
v 2.2 0.8 0.5
v 2.4 0.8 0.5
v 3.8 0.8 0.5
v 4 0.8 0.5
v 2.3 0.8 0.4
v 2.5 0.8 0.4
v 3.7 0.8 0.4
v 3.9 0.8 0.4
v 2.3 0.8 -0.2
v 2.5 0.8 -0.2
v 3.7 0.8 -0.2
v 3.9 0.8 -0.2
v 2.2 0.8 -0.3
v 2.4 0.8 -0.3
v 3.8 0.8 -0.3
v 4 0.8 -0.3
v 2.5 0.8 -0.4
v 3.7 0.8 -0.4
v 2.4 0.8 -0.5
v 3.8 0.8 -0.5
v 2.2 1 0.7
v 2.4 1 0.7
v 3.8 1 0.7
v 4 1 0.7
v 2.3 1 0.6
v 2.4 1 0.6
v 3.8 1 0.6
v 3.9 1 0.6
v 2.2 1 0.5
v 2.3 1 0.5
v 2.4 1 0.5
v 3.8 1 0.5
v 3.9 1 0.5
v 4 1 0.5
v 2.2 1 -0.3
v 2.3 1 -0.3
v 2.4 1 -0.3
v 3.8 1 -0.3
v 3.9 1 -0.3
v 4 1 -0.3
v 2.3 1 -0.4
v 2.4 1 -0.4
v 3.8 1 -0.4
v 3.9 1 -0.4
v 2.2 1 -0.5
v 2.4 1 -0.5
v 3.8 1 -0.5
v 4 1 -0.5
v 2.2 1.5 0.7
v 4 1.5 0.7
v 2.3 1.5 0.6
v 2.4 1.5 0.6
v 2.6 1.5 0.6
v 2.7 1.5 0.6
v 2.9 1.5 0.6
v 3 1.5 0.6
v 3.2 1.5 0.6
v 3.3 1.5 0.6
v 3.5 1.5 0.6
v 3.6 1.5 0.6
v 3.8 1.5 0.6
v 3.9 1.5 0.6
v 2.3 1.5 0.5
v 2.4 1.5 0.5
v 2.6 1.5 0.5
v 2.7 1.5 0.5
v 2.9 1.5 0.5
v 3 1.5 0.5
v 3.2 1.5 0.5
v 3.3 1.5 0.5
v 3.5 1.5 0.5
v 3.6 1.5 0.5
v 3.8 1.5 0.5
v 3.9 1.5 0.5
v 2.3 1.5 0.3
v 2.4 1.5 0.3
v 3.8 1.5 0.3
v 3.9 1.5 0.3
v 2.3 1.5 0.2
v 2.4 1.5 0.2
v 3.8 1.5 0.2
v 3.9 1.5 0.2
v 2.3 1.5 0
v 2.4 1.5 0
v 3.8 1.5 0
v 3.9 1.5 0
v 2.3 1.5 -0.1
v 2.4 1.5 -0.1
v 3.8 1.5 -0.1
v 3.9 1.5 -0.1
v 2.3 1.5 -0.3
v 2.4 1.5 -0.3
v 2.6 1.5 -0.3
v 2.7 1.5 -0.3
v 2.9 1.5 -0.3
v 3 1.5 -0.3
v 3.2 1.5 -0.3
v 3.3 1.5 -0.3
v 3.5 1.5 -0.3
v 3.6 1.5 -0.3
v 3.8 1.5 -0.3
v 3.9 1.5 -0.3
v 2.3 1.5 -0.4
v 2.4 1.5 -0.4
v 2.6 1.5 -0.4
v 2.7 1.5 -0.4
v 2.9 1.5 -0.4
v 3 1.5 -0.4
v 3.2 1.5 -0.4
v 3.3 1.5 -0.4
v 3.5 1.5 -0.4
v 3.6 1.5 -0.4
v 3.8 1.5 -0.4
v 3.9 1.5 -0.4
v 2.2 1.5 -0.5
v 4 1.5 -0.5
v 2.3 1.6 0.6
v 2.4 1.6 0.6
v 2.6 1.6 0.6
v 2.7 1.6 0.6
v 2.9 1.6 0.6
v 3 1.6 0.6
v 3.2 1.6 0.6
v 3.3 1.6 0.6
v 3.5 1.6 0.6
v 3.6 1.6 0.6
v 3.8 1.6 0.6
v 3.9 1.6 0.6
v 2.3 1.6 0.5
v 2.4 1.6 0.5
v 2.6 1.6 0.5
v 2.7 1.6 0.5
v 2.9 1.6 0.5
v 3 1.6 0.5
v 3.2 1.6 0.5
v 3.3 1.6 0.5
v 3.5 1.6 0.5
v 3.6 1.6 0.5
v 3.8 1.6 0.5
v 3.9 1.6 0.5
v 2.3 1.6 0.3
v 2.4 1.6 0.3
v 3.8 1.6 0.3
v 3.9 1.6 0.3
v 2.3 1.6 0.2
v 2.4 1.6 0.2
v 3.8 1.6 0.2
v 3.9 1.6 0.2
v 2.3 1.6 0
v 2.4 1.6 0
v 3.8 1.6 0
v 3.9 1.6 0
v 2.3 1.6 -0.1
v 2.4 1.6 -0.1
v 3.8 1.6 -0.1
v 3.9 1.6 -0.1
v 2.3 1.6 -0.3
v 2.4 1.6 -0.3
v 2.6 1.6 -0.3
v 2.7 1.6 -0.3
v 2.9 1.6 -0.3
v 3 1.6 -0.3
v 3.2 1.6 -0.3
v 3.3 1.6 -0.3
v 3.5 1.6 -0.3
v 3.6 1.6 -0.3
v 3.8 1.6 -0.3
v 3.9 1.6 -0.3
v 2.3 1.6 -0.4
v 2.4 1.6 -0.4
v 2.6 1.6 -0.4
v 2.7 1.6 -0.4
v 2.9 1.6 -0.4
v 3 1.6 -0.4
v 3.2 1.6 -0.4
v 3.3 1.6 -0.4
v 3.5 1.6 -0.4
v 3.6 1.6 -0.4
v 3.8 1.6 -0.4
v 3.9 1.6 -0.4

# faces
f 3/3/1 2/3/1 1/3/1
f 4/3/1 2/3/1 3/3/1
f 6/3/1 3/3/1 1/3/1
f 7/3/1 2/3/1 4/3/1
f 9/3/1 6/3/1 5/3/1
f 10/4/1 4/4/1 3/4/1
f 10/3/1 6/3/1 9/3/1
f 10/3/1 3/3/1 6/3/1
f 11/3/1 8/3/1 7/3/1
f 11/4/1 4/4/1 10/4/1
f 11/3/1 7/3/1 4/3/1
f 12/3/1 8/3/1 11/3/1
f 13/3/1 9/3/1 5/3/1
f 14/4/1 10/4/1 9/4/1
f 14/3/1 9/3/1 13/3/1
f 14/4/1 11/4/1 10/4/1
f 14/4/1 12/4/1 11/4/1
f 15/3/1 8/3/1 12/3/1
f 15/4/1 12/4/1 14/4/1
f 16/3/1 8/3/1 15/3/1
f 17/5/1 14/5/1 13/5/1
f 17/5/1 15/5/1 14/5/1
f 17/5/1 16/5/1 15/5/1
f 18/5/1 16/5/1 17/5/1
f 27/2/1 20/2/1 19/2/1
f 28/2/1 20/2/1 27/2/1
f 29/2/1 22/2/1 21/2/1
f 30/2/1 22/2/1 29/2/1
f 31/2/1 24/2/1 23/2/1
f 32/2/1 24/2/1 31/2/1
f 33/2/1 26/2/1 25/2/1
f 34/2/1 26/2/1 33/2/1
f 39/3/1 36/3/1 35/3/1
f 40/3/1 36/3/1 39/3/1
f 41/3/1 38/3/1 37/3/1
f 42/3/1 38/3/1 41/3/1
f 43/3/1 39/3/1 35/3/1
f 44/4/1 40/4/1 39/4/1
f 44/3/1 39/3/1 43/3/1
f 45/4/1 40/4/1 44/4/1
f 46/4/1 42/4/1 41/4/1
f 47/3/1 38/3/1 42/3/1
f 47/4/1 42/4/1 46/4/1
f 48/3/1 38/3/1 47/3/1
f 53/2/1 50/2/1 49/2/1
f 54/2/1 50/2/1 53/2/1
f 55/2/1 52/2/1 51/2/1
f 56/2/1 52/2/1 55/2/1
f 61/2/1 58/2/1 57/2/1
f 62/2/1 58/2/1 61/2/1
f 63/2/1 60/2/1 59/2/1
f 64/2/1 60/2/1 63/2/1
f 69/2/1 66/2/1 65/2/1
f 70/2/1 66/2/1 69/2/1
f 71/2/1 68/2/1 67/2/1
f 72/2/1 68/2/1 71/2/1
f 77/2/1 74/2/1 73/2/1
f 78/2/1 74/2/1 77/2/1
f 79/2/1 76/2/1 75/2/1
f 80/2/1 76/2/1 79/2/1
f 89/2/1 82/2/1 81/2/1
f 90/2/1 82/2/1 89/2/1
f 91/2/1 84/2/1 83/2/1
f 92/2/1 84/2/1 91/2/1
f 93/2/1 86/2/1 85/2/1
f 94/2/1 86/2/1 93/2/1
f 95/2/1 88/2/1 87/2/1
f 96/2/1 88/2/1 95/2/1
f 97/2/2 98/2/2 105/2/2
f 105/2/2 98/2/2 106/2/2
f 99/2/2 100/2/2 107/2/2
f 107/2/2 100/2/2 108/2/2
f 101/2/2 102/2/2 109/2/2
f 109/2/2 102/2/2 110/2/2
f 103/2/2 104/2/2 111/2/2
f 111/2/2 104/2/2 112/2/2
f 113/2/2 114/2/2 117/2/2
f 117/2/2 114/2/2 118/2/2
f 115/2/2 116/2/2 119/2/2
f 119/2/2 116/2/2 120/2/2
f 121/2/2 122/2/2 125/2/2
f 125/2/2 122/2/2 126/2/2
f 123/2/2 124/2/2 127/2/2
f 127/2/2 124/2/2 128/2/2
f 129/2/2 130/2/2 133/2/2
f 133/2/2 130/2/2 134/2/2
f 131/2/2 132/2/2 135/2/2
f 135/2/2 132/2/2 136/2/2
f 137/2/2 138/2/2 141/2/2
f 141/2/2 138/2/2 142/2/2
f 139/2/2 140/2/2 143/2/2
f 143/2/2 140/2/2 144/2/2
f 145/3/2 146/3/2 149/3/2
f 149/3/2 146/3/2 150/3/2
f 147/3/2 148/3/2 151/3/2
f 151/3/2 148/3/2 152/3/2
f 145/3/2 149/3/2 153/3/2
f 149/4/2 150/4/2 154/4/2
f 153/3/2 149/3/2 154/3/2
f 154/4/2 150/4/2 155/4/2
f 151/4/2 152/4/2 156/4/2
f 152/3/2 148/3/2 157/3/2
f 156/4/2 152/4/2 157/4/2
f 157/3/2 148/3/2 158/3/2
f 159/2/2 160/2/2 167/2/2
f 167/2/2 160/2/2 168/2/2
f 161/2/2 162/2/2 169/2/2
f 169/2/2 162/2/2 170/2/2
f 163/2/2 164/2/2 171/2/2
f 171/2/2 164/2/2 172/2/2
f 165/2/2 166/2/2 173/2/2
f 173/2/2 166/2/2 174/2/2
f 175/3/2 176/3/2 177/3/2
f 177/3/2 176/3/2 178/3/2
f 175/3/2 177/3/2 180/3/2
f 178/3/2 176/3/2 181/3/2
f 179/3/2 180/3/2 183/3/2
f 177/4/2 178/4/2 184/4/2
f 183/3/2 180/3/2 184/3/2
f 180/3/2 177/3/2 184/3/2
f 181/3/2 182/3/2 185/3/2
f 184/4/2 178/4/2 185/4/2
f 178/3/2 181/3/2 185/3/2
f 185/3/2 182/3/2 186/3/2
f 179/3/2 183/3/2 187/3/2
f 183/4/2 184/4/2 188/4/2
f 187/3/2 183/3/2 188/3/2
f 184/4/2 185/4/2 188/4/2
f 185/4/2 186/4/2 188/4/2
f 186/3/2 182/3/2 189/3/2
f 188/4/2 186/4/2 189/4/2
f 189/3/2 182/3/2 190/3/2
f 187/5/2 188/5/2 191/5/2
f 188/5/2 189/5/2 191/5/2
f 189/5/2 190/5/2 191/5/2
f 191/5/2 190/5/2 192/5/2
f 196/3/3 194/3/3 193/3/3
f 197/5/3 195/5/3 194/5/3
f 197/3/3 194/3/3 196/3/3
f 199/3/3 196/3/3 193/3/3
f 200/3/3 199/3/3 198/3/3
f 201/4/3 197/4/3 196/4/3
f 201/3/3 199/3/3 200/3/3
f 201/3/3 196/3/3 199/3/3
f 202/3/3 200/3/3 198/3/3
f 202/4/3 201/4/3 200/4/3
f 203/4/3 197/4/3 201/4/3
f 203/4/3 201/4/3 202/4/3
f 204/3/3 202/3/3 198/3/3
f 204/3/3 203/3/3 202/3/3
f 205/3/3 203/3/3 204/3/3
f 206/4/3 197/4/3 203/4/3
f 206/3/3 203/3/3 205/3/3
f 207/5/3 195/5/3 197/5/3
f 207/4/3 197/4/3 206/4/3
f 208/3/3 206/3/3 205/3/3
f 208/3/3 207/3/3 206/3/3
f 209/5/3 195/5/3 207/5/3
f 209/3/3 207/3/3 208/3/3
f 210/5/3 195/5/3 209/5/3
f 213/2/3 212/2/3 211/2/3
f 214/2/3 212/2/3 213/2/3
f 217/2/3 216/2/3 215/2/3
f 218/2/3 216/2/3 217/2/3
f 221/2/3 220/2/3 219/2/3
f 222/2/3 220/2/3 221/2/3
f 225/2/3 224/2/3 223/2/3
f 226/2/3 224/2/3 225/2/3
f 229/2/3 228/2/3 227/2/3
f 230/2/3 228/2/3 229/2/3
f 233/2/3 232/2/3 231/2/3
f 234/2/3 232/2/3 233/2/3
f 237/3/3 236/3/3 235/3/3
f 238/3/3 236/3/3 237/3/3
f 239/3/3 237/3/3 235/3/3
f 240/4/3 238/4/3 237/4/3
f 240/3/3 237/3/3 239/3/3
f 241/4/3 238/4/3 240/4/3
f 245/3/3 243/3/3 242/3/3
f 245/4/3 244/4/3 243/4/3
f 246/4/3 244/4/3 245/4/3
f 247/3/3 245/3/3 242/3/3
f 247/3/3 246/3/3 245/3/3
f 248/3/3 246/3/3 247/3/3
f 251/2/3 250/2/3 249/2/3
f 252/2/3 250/2/3 251/2/3
f 255/2/3 254/2/3 253/2/3
f 256/2/3 254/2/3 255/2/3
f 259/2/3 258/2/3 257/2/3
f 260/2/3 258/2/3 259/2/3
f 263/2/3 262/2/3 261/2/3
f 264/2/3 262/2/3 263/2/3
f 267/2/3 266/2/3 265/2/3
f 268/2/3 266/2/3 267/2/3
f 271/2/3 270/2/3 269/2/3
f 272/2/3 270/2/3 271/2/3
f 275/2/3 274/2/3 273/2/3
f 276/2/3 274/2/3 275/2/3
f 279/2/3 278/2/3 277/2/3
f 280/2/3 278/2/3 279/2/3
f 283/2/3 282/2/3 281/2/3
f 284/2/3 282/2/3 283/2/3
f 287/2/3 286/2/3 285/2/3
f 288/2/3 286/2/3 287/2/3
f 289/2/4 290/2/4 291/2/4
f 291/2/4 290/2/4 292/2/4
f 293/2/4 294/2/4 295/2/4
f 295/2/4 294/2/4 296/2/4
f 297/2/4 298/2/4 299/2/4
f 299/2/4 298/2/4 300/2/4
f 301/2/4 302/2/4 303/2/4
f 303/2/4 302/2/4 304/2/4
f 305/2/4 306/2/4 307/2/4
f 307/2/4 306/2/4 308/2/4
f 309/2/4 310/2/4 311/2/4
f 311/2/4 310/2/4 312/2/4
f 313/2/4 314/2/4 315/2/4
f 315/2/4 314/2/4 316/2/4
f 317/2/4 318/2/4 319/2/4
f 319/2/4 318/2/4 320/2/4
f 321/2/4 322/2/4 323/2/4
f 323/2/4 322/2/4 324/2/4
f 325/2/4 326/2/4 327/2/4
f 327/2/4 326/2/4 328/2/4
f 329/3/4 330/3/4 331/3/4
f 331/3/4 330/3/4 332/3/4
f 329/3/4 331/3/4 333/3/4
f 331/4/4 332/4/4 334/4/4
f 333/3/4 331/3/4 334/3/4
f 334/4/4 332/4/4 335/4/4
f 336/3/4 337/3/4 339/3/4
f 337/4/4 338/4/4 339/4/4
f 339/4/4 338/4/4 340/4/4
f 336/3/4 339/3/4 341/3/4
f 339/3/4 340/3/4 341/3/4
f 341/3/4 340/3/4 342/3/4
f 343/2/4 344/2/4 345/2/4
f 345/2/4 344/2/4 346/2/4
f 347/2/4 348/2/4 349/2/4
f 349/2/4 348/2/4 350/2/4
f 351/2/4 352/2/4 353/2/4
f 353/2/4 352/2/4 354/2/4
f 355/2/4 356/2/4 357/2/4
f 357/2/4 356/2/4 358/2/4
f 359/2/4 360/2/4 361/2/4
f 361/2/4 360/2/4 362/2/4
f 363/2/4 364/2/4 365/2/4
f 365/2/4 364/2/4 366/2/4
f 367/3/4 368/3/4 370/3/4
f 368/5/4 369/5/4 371/5/4
f 370/3/4 368/3/4 371/3/4
f 367/3/4 370/3/4 373/3/4
f 372/3/4 373/3/4 374/3/4
f 370/4/4 371/4/4 375/4/4
f 374/3/4 373/3/4 375/3/4
f 373/3/4 370/3/4 375/3/4
f 372/3/4 374/3/4 376/3/4
f 374/4/4 375/4/4 376/4/4
f 375/4/4 371/4/4 377/4/4
f 376/4/4 375/4/4 377/4/4
f 372/3/4 376/3/4 378/3/4
f 376/3/4 377/3/4 378/3/4
f 378/3/4 377/3/4 379/3/4
f 377/4/4 371/4/4 380/4/4
f 379/3/4 377/3/4 380/3/4
f 371/5/4 369/5/4 381/5/4
f 380/4/4 371/4/4 381/4/4
f 379/3/4 380/3/4 382/3/4
f 380/3/4 381/3/4 382/3/4
f 381/5/4 369/5/4 383/5/4
f 382/3/4 381/3/4 383/3/4
f 383/5/4 369/5/4 384/5/4
f 387/3/5 386/3/5 385/3/5
f 388/3/5 386/3/5 387/3/5
f 390/3/5 387/3/5 385/3/5
f 391/3/5 386/3/5 388/3/5
f 393/3/5 390/3/5 389/3/5
f 394/4/5 388/4/5 387/4/5
f 394/3/5 390/3/5 393/3/5
f 394/3/5 387/3/5 390/3/5
f 395/3/5 392/3/5 391/3/5
f 395/4/5 388/4/5 394/4/5
f 395/3/5 391/3/5 388/3/5
f 396/3/5 392/3/5 395/3/5
f 397/4/5 394/4/5 393/4/5
f 397/3/5 393/3/5 389/3/5
f 397/4/5 396/4/5 395/4/5
f 397/4/5 395/4/5 394/4/5
f 398/4/5 396/4/5 397/4/5
f 399/4/5 396/4/5 398/4/5
f 400/3/5 392/3/5 396/3/5
f 400/4/5 396/4/5 399/4/5
f 401/3/5 397/3/5 389/3/5
f 401/3/5 398/3/5 397/3/5
f 402/3/5 398/3/5 401/3/5
f 403/3/5 400/3/5 399/3/5
f 404/3/5 392/3/5 400/3/5
f 404/3/5 400/3/5 403/3/5
f 405/4/5 399/4/5 398/4/5
f 405/3/5 398/3/5 402/3/5
f 406/3/5 403/3/5 399/3/5
f 406/4/5 399/4/5 405/4/5
f 407/3/5 405/3/5 402/3/5
f 407/3/5 406/3/5 405/3/5
f 408/3/5 403/3/5 406/3/5
f 408/3/5 406/3/5 407/3/5
f 413/3/5 410/3/5 409/3/5
f 414/3/5 410/3/5 413/3/5
f 415/3/5 412/3/5 411/3/5
f 416/3/5 412/3/5 415/3/5
f 417/3/5 413/3/5 409/3/5
f 418/4/5 414/4/5 413/4/5
f 418/3/5 413/3/5 417/3/5
f 419/4/5 414/4/5 418/4/5
f 420/4/5 416/4/5 415/4/5
f 421/3/5 412/3/5 416/3/5
f 421/4/5 416/4/5 420/4/5
f 422/3/5 412/3/5 421/3/5
f 429/3/5 424/3/5 423/3/5
f 429/4/5 425/4/5 424/4/5
f 430/4/5 425/4/5 429/4/5
f 431/4/5 427/4/5 426/4/5
f 432/3/5 428/3/5 427/3/5
f 432/4/5 427/4/5 431/4/5
f 433/3/5 430/3/5 429/3/5
f 433/3/5 429/3/5 423/3/5
f 434/3/5 430/3/5 433/3/5
f 435/3/5 432/3/5 431/3/5
f 436/3/5 428/3/5 432/3/5
f 436/3/5 432/3/5 435/3/5
f 437/5/6 438/5/6 439/5/6
f 439/5/6 438/5/6 440/5/6
f 440/5/6 438/5/6 441/5/6
f 441/5/6 438/5/6 442/5/6
f 442/5/6 438/5/6 443/5/6
f 443/5/6 438/5/6 444/5/6
f 444/5/6 438/5/6 445/5/6
f 445/5/6 438/5/6 446/5/6
f 446/5/6 438/5/6 447/5/6
f 447/5/6 438/5/6 448/5/6
f 448/5/6 438/5/6 449/5/6
f 449/5/6 438/5/6 450/5/6
f 437/5/6 439/5/6 451/5/6
f 440/1/6 441/1/6 452/1/6
f 452/1/6 441/1/6 453/1/6
f 442/1/6 443/1/6 454/1/6
f 454/1/6 443/1/6 455/1/6
f 444/1/6 445/1/6 456/1/6
f 456/1/6 445/1/6 457/1/6
f 446/1/6 447/1/6 458/1/6
f 458/1/6 447/1/6 459/1/6
f 448/1/6 449/1/6 460/1/6
f 460/1/6 449/1/6 461/1/6
f 450/5/6 438/5/6 462/5/6
f 460/1/6 461/1/6 463/1/6
f 461/1/6 462/1/6 463/1/6
f 458/1/6 459/1/6 463/1/6
f 437/5/6 451/5/6 463/5/6
f 459/1/6 460/1/6 463/1/6
f 456/1/6 457/1/6 463/1/6
f 457/1/6 458/1/6 463/1/6
f 452/1/6 453/1/6 463/1/6
f 455/1/6 456/1/6 463/1/6
f 454/1/6 455/1/6 463/1/6
f 453/1/6 454/1/6 463/1/6
f 451/1/6 452/1/6 463/1/6
f 463/1/6 462/1/6 464/1/6
f 464/1/6 462/1/6 465/1/6
f 462/5/6 438/5/6 466/5/6
f 465/1/6 462/1/6 466/1/6
f 437/5/6 463/5/6 467/5/6
f 464/1/6 465/1/6 468/1/6
f 468/1/6 465/1/6 469/1/6
f 466/5/6 438/5/6 470/5/6
f 437/5/6 467/5/6 471/5/6
f 469/1/6 470/1/6 471/1/6
f 468/1/6 469/1/6 471/1/6
f 467/1/6 468/1/6 471/1/6
f 471/1/6 470/1/6 472/1/6
f 472/1/6 470/1/6 473/1/6
f 470/5/6 438/5/6 474/5/6
f 473/1/6 470/1/6 474/1/6
f 437/5/6 471/5/6 475/5/6
f 472/1/6 473/1/6 476/1/6
f 476/1/6 473/1/6 477/1/6
f 474/5/6 438/5/6 478/5/6
f 437/5/6 475/5/6 479/5/6
f 477/1/6 478/1/6 479/1/6
f 476/1/6 477/1/6 479/1/6
f 475/1/6 476/1/6 479/1/6
f 479/1/6 478/1/6 480/1/6
f 480/1/6 478/1/6 481/1/6
f 481/1/6 478/1/6 482/1/6
f 482/1/6 478/1/6 483/1/6
f 483/1/6 478/1/6 484/1/6
f 484/1/6 478/1/6 485/1/6
f 485/1/6 478/1/6 486/1/6
f 486/1/6 478/1/6 487/1/6
f 487/1/6 478/1/6 488/1/6
f 488/1/6 478/1/6 489/1/6
f 478/5/6 438/5/6 490/5/6
f 489/1/6 478/1/6 490/1/6
f 437/5/6 479/5/6 491/5/6
f 480/1/6 481/1/6 492/1/6
f 492/1/6 481/1/6 493/1/6
f 482/1/6 483/1/6 494/1/6
f 494/1/6 483/1/6 495/1/6
f 484/1/6 485/1/6 496/1/6
f 496/1/6 485/1/6 497/1/6
f 486/1/6 487/1/6 498/1/6
f 498/1/6 487/1/6 499/1/6
f 488/1/6 489/1/6 500/1/6
f 500/1/6 489/1/6 501/1/6
f 490/5/6 438/5/6 502/5/6
f 498/5/6 499/5/6 503/5/6
f 501/5/6 502/5/6 503/5/6
f 500/5/6 501/5/6 503/5/6
f 496/5/6 497/5/6 503/5/6
f 499/5/6 500/5/6 503/5/6
f 437/5/6 491/5/6 503/5/6
f 497/5/6 498/5/6 503/5/6
f 494/5/6 495/5/6 503/5/6
f 495/5/6 496/5/6 503/5/6
f 492/5/6 493/5/6 503/5/6
f 493/5/6 494/5/6 503/5/6
f 491/5/6 492/5/6 503/5/6
f 502/5/6 438/5/6 504/5/6
f 503/5/6 502/5/6 504/5/6
f 505/2/6 506/2/6 517/2/6
f 517/2/6 506/2/6 518/2/6
f 507/2/6 508/2/6 519/2/6
f 519/2/6 508/2/6 520/2/6
f 509/2/6 510/2/6 521/2/6
f 521/2/6 510/2/6 522/2/6
f 511/2/6 512/2/6 523/2/6
f 523/2/6 512/2/6 524/2/6
f 513/2/6 514/2/6 525/2/6
f 525/2/6 514/2/6 526/2/6
f 515/2/6 516/2/6 527/2/6
f 527/2/6 516/2/6 528/2/6
f 529/2/6 530/2/6 533/2/6
f 533/2/6 530/2/6 534/2/6
f 531/2/6 532/2/6 535/2/6
f 535/2/6 532/2/6 536/2/6
f 537/2/6 538/2/6 541/2/6
f 541/2/6 538/2/6 542/2/6
f 539/2/6 540/2/6 543/2/6
f 543/2/6 540/2/6 544/2/6
f 545/2/6 546/2/6 557/2/6
f 557/2/6 546/2/6 558/2/6
f 547/2/6 548/2/6 559/2/6
f 559/2/6 548/2/6 560/2/6
f 549/2/6 550/2/6 561/2/6
f 561/2/6 550/2/6 562/2/6
f 551/2/6 552/2/6 563/2/6
f 563/2/6 552/2/6 564/2/6
f 553/2/6 554/2/6 565/2/6
f 565/2/6 554/2/6 566/2/6
f 555/2/6 556/2/6 567/2/6
f 567/2/6 556/2/6 568/2/6
